<svg xmlns="http://www.w3.org/2000/svg" xmlns:xlink="http://www.w3.org/1999/xlink" width="1080" zoomAndPan="magnify" viewBox="0 0 810 809.999993" height="1080" preserveAspectRatio="xMidYMid meet" version="1.0"><defs><clipPath id="fd2217f10b"><path d="M 411 72 L 736.597656 72 L 736.597656 737.933594 L 411 737.933594 Z M 411 72 " clip-rule="nonzero"/></clipPath><clipPath id="57e99e08b6"><path d="M 530 723 L 608 723 L 608 737.933594 L 530 737.933594 Z M 530 723 " clip-rule="nonzero"/></clipPath><clipPath id="13c2d63116"><path d="M 85 183 L 736.597656 183 L 736.597656 713 L 85 713 Z M 85 183 " clip-rule="nonzero"/></clipPath><clipPath id="c039d6f3fc"><path d="M 530 723 L 608 723 L 608 737.933594 L 530 737.933594 Z M 530 723 " clip-rule="nonzero"/></clipPath><clipPath id="8e6fbfb0d2"><path d="M 654 700 L 710 700 L 710 737.933594 L 654 737.933594 Z M 654 700 " clip-rule="nonzero"/></clipPath></defs><path fill="#eaeaea" d="M 504.941406 580.609375 C 504.910156 575.65625 504.484375 570.671875 503.730469 565.683594 L 535.453125 565.683594 C 539.925781 565.683594 543.550781 562.0625 543.550781 557.589844 L 543.550781 519.460938 C 541.128906 520.46875 538.484375 521.042969 535.695312 521.042969 C 524.332031 521.042969 515.121094 511.835938 515.121094 500.476562 C 515.121094 489.117188 524.332031 479.910156 535.695312 479.910156 C 538.484375 479.910156 541.128906 480.484375 543.550781 481.488281 L 543.550781 445.230469 C 543.550781 440.761719 539.925781 437.136719 535.453125 437.136719 L 496.605469 437.136719 C 498.152344 434.25 499.03125 430.953125 499.03125 427.449219 C 499.03125 416.089844 489.820312 406.882812 478.457031 406.882812 C 467.089844 406.882812 457.878906 416.089844 457.878906 427.449219 C 457.878906 430.953125 458.761719 434.25 460.308594 437.136719 L 423.039062 437.136719 C 418.566406 437.136719 414.941406 440.761719 414.941406 445.230469 L 414.941406 494.40625 C 411.347656 493.722656 407.703125 493.234375 404.015625 493.011719 L 397.6875 474.996094 C 393.585938 475.023438 389.460938 475.320312 385.332031 475.84375 L 385.332031 418.425781 C 385.332031 413.957031 381.707031 410.332031 377.234375 410.332031 L 338.382812 410.332031 C 339.929688 407.445312 340.8125 404.148438 340.8125 400.644531 C 340.8125 389.285156 331.597656 380.078125 320.234375 380.078125 C 308.871094 380.078125 299.65625 389.285156 299.65625 400.644531 C 299.65625 404.148438 300.539062 407.445312 302.085938 410.332031 L 264.816406 410.332031 C 260.34375 410.332031 256.71875 413.957031 256.71875 418.425781 L 256.71875 530.789062 C 256.71875 535.257812 260.34375 538.882812 264.816406 538.882812 L 300.953125 538.882812 C 300.027344 541 299.148438 543.136719 298.363281 545.3125 L 313.238281 557.253906 C 311.507812 563.296875 310.425781 569.527344 310.046875 575.875 L 292.019531 582.199219 C 292.058594 588.167969 292.636719 594.175781 293.71875 600.1875 L 312.554688 603.078125 C 313.324219 606.121094 314.25 609.125 315.363281 612.132812 C 316.472656 615.125 317.722656 618.007812 319.121094 620.820312 L 306.695312 635.261719 C 309.785156 640.53125 313.261719 645.472656 317.113281 650.027344 L 334.921875 643.113281 C 339.34375 647.683594 344.21875 651.714844 349.46875 655.191406 L 345.945312 673.917969 C 351.195312 676.890625 356.695312 679.417969 362.371094 681.472656 L 374.304688 666.613281 C 380.363281 668.335938 386.597656 669.414062 392.949219 669.796875 L 399.277344 687.8125 C 405.246094 687.777344 411.261719 687.199219 417.273438 686.113281 L 420.164062 667.289062 C 423.210938 666.519531 426.214844 665.59375 429.207031 664.488281 C 432.21875 663.375 435.101562 662.121094 437.914062 660.726562 L 452.363281 673.144531 C 457.636719 670.054688 462.578125 666.585938 467.136719 662.730469 L 460.21875 644.933594 C 464.792969 640.511719 468.820312 635.640625 472.289062 630.394531 L 491.039062 633.914062 C 494.015625 628.664062 496.542969 623.167969 498.597656 617.496094 L 483.730469 605.570312 C 485.4375 599.515625 486.53125 593.28125 486.914062 586.933594 Z M 414.363281 624.367188 C 390.640625 633.132812 364.273438 621.007812 355.503906 597.296875 C 346.726562 573.570312 358.855469 547.214844 382.578125 538.449219 C 393.464844 534.425781 404.898438 534.808594 414.941406 538.675781 L 414.941406 557.589844 C 414.941406 562.0625 418.566406 565.683594 423.039062 565.683594 L 441.515625 565.683594 C 450.175781 589.355469 438.050781 615.613281 414.363281 624.367188 Z M 414.363281 624.367188 " fill-opacity="1" fill-rule="nonzero"/><g clip-path="url(#fd2217f10b)"><path fill="#eaeaea" d="M 736.242188 474.300781 C 736.242188 474.285156 736.25 474.265625 736.25 474.25 C 736.203125 473.09375 735.921875 470.03125 735.539062 466.207031 L 735.539062 466.203125 C 734.53125 456.128906 732.824219 440.746094 732.824219 440.738281 L 725.925781 379.03125 L 728.585938 378.5 C 725.605469 349.011719 724.691406 314.140625 724.167969 307.242188 C 723.460938 299.101562 722.78125 290.960938 721.765625 282.84375 C 720.808594 275.191406 715.921875 269.007812 709.394531 266.003906 C 709.402344 265.949219 709.410156 265.90625 709.410156 265.90625 C 694.28125 259.378906 679.5 255.058594 664.851562 252.957031 L 665.09375 256.191406 L 662.992188 228.351562 L 663.054688 229.132812 C 667.207031 228.402344 683.566406 224.574219 681.710938 209.71875 C 681.710938 209.71875 694.59375 194.9375 681.808594 183.425781 C 681.953125 170.066406 674.746094 163.578125 661.3125 162.929688 C 661.3125 162.929688 636.921875 160.855469 627.007812 160.128906 C 627.933594 157.382812 628.671875 154.566406 629.167969 151.683594 L 641.34375 148.882812 C 641.75 145 641.8125 141.050781 641.546875 137.066406 L 629.515625 133.820312 C 629.234375 131.789062 628.855469 129.769531 628.351562 127.742188 C 627.847656 125.707031 627.242188 123.742188 626.539062 121.816406 L 635.660156 113.332031 C 634.035156 109.683594 632.140625 106.21875 629.964844 102.976562 L 617.890625 106.179688 C 615.347656 102.890625 612.460938 99.917969 609.316406 97.285156 L 612.964844 85.359375 C 609.769531 83.046875 606.378906 81.003906 602.839844 79.257812 L 593.992188 88.050781 C 590.195312 86.496094 586.21875 85.332031 582.117188 84.625 L 579.316406 72.457031 C 575.429688 72.046875 571.480469 71.984375 567.496094 72.253906 L 564.246094 84.277344 C 562.214844 84.558594 560.191406 84.9375 558.15625 85.445312 C 556.128906 85.945312 554.164062 86.550781 552.234375 87.253906 L 543.746094 78.132812 C 540.097656 79.757812 536.632812 81.65625 533.390625 83.828125 L 536.59375 95.898438 C 533.300781 98.4375 530.328125 101.324219 527.679688 104.46875 L 515.761719 100.820312 C 513.445312 104.015625 511.402344 107.402344 509.65625 110.941406 L 518.457031 119.78125 C 516.894531 123.582031 515.738281 127.554688 515.027344 131.648438 L 502.855469 134.453125 C 502.445312 138.332031 502.386719 142.28125 502.652344 146.265625 L 514.683594 149.511719 C 514.960938 151.546875 515.34375 153.5625 515.847656 155.601562 C 516.351562 157.628906 516.957031 159.589844 517.65625 161.519531 L 513.605469 165.285156 L 496.917969 165.285156 C 498.429688 168.128906 499.296875 171.371094 499.296875 174.816406 C 499.296875 186.046875 490.1875 195.152344 478.949219 195.152344 C 467.710938 195.152344 458.601562 186.046875 458.601562 174.816406 C 458.601562 171.371094 459.464844 168.128906 460.980469 165.285156 L 419.960938 165.285156 C 415.515625 165.285156 411.914062 168.886719 411.914062 173.328125 L 411.914062 210.390625 C 414.84375 209.234375 418.09375 208.714844 421.511719 209.085938 C 431.382812 210.15625 439.160156 218.5 439.511719 228.421875 C 439.917969 239.902344 430.726562 249.339844 419.328125 249.339844 C 416.710938 249.339844 414.210938 248.824219 411.914062 247.914062 L 411.914062 284.976562 C 411.914062 289.417969 415.515625 293.019531 419.960938 293.019531 L 434.636719 293.019531 C 434.515625 294.5 435.546875 295.867188 437.886719 296.21875 C 438.671875 296.332031 439.648438 296.445312 440.757812 296.550781 C 439.933594 298.207031 440.539062 299.945312 442.949219 300.21875 C 443.992188 300.339844 445.5625 300.507812 447.421875 300.707031 C 447.875 301.332031 448.5625 301.859375 449.527344 302.148438 C 453.773438 303.429688 461.90625 305.226562 465.03125 305.90625 C 465.867188 306.089844 466.710938 306.210938 467.570312 306.28125 C 467.570312 306.28125 483.90625 307.644531 486.355469 307.769531 L 486.40625 307.773438 C 486.96875 307.800781 487.539062 307.8125 488.113281 307.824219 L 522.898438 370.742188 C 528.804688 380.445312 541.460938 383.523438 551.167969 377.621094 C 552.832031 376.609375 559.8125 369.464844 566.917969 361.988281 L 574.234375 372.242188 L 586.25 345.132812 L 586.5625 348.492188 C 586.601562 348.898438 586.945312 349.203125 587.34375 349.203125 C 587.371094 349.203125 587.394531 349.203125 587.417969 349.199219 C 587.460938 349.199219 587.492188 349.175781 587.53125 349.167969 C 588.148438 357.472656 588.53125 364.417969 588.53125 368.691406 C 588.53125 384.6875 586.101562 412.871094 586.101562 424.582031 C 586.101562 426.59375 587.0625 428.394531 588.566406 429.558594 L 588.09375 442.421875 C 588.144531 442.410156 588.191406 442.390625 588.246094 442.390625 C 587.726562 442.390625 587.308594 442.808594 587.308594 443.324219 C 587.308594 443.839844 587.726562 444.261719 588.246094 444.261719 C 588.164062 444.261719 588.097656 444.234375 588.027344 444.214844 L 583.871094 557.261719 L 578.4375 684.742188 L 579.277344 684.742188 C 578.660156 692.484375 577.527344 697.710938 575.800781 702.066406 C 584.277344 713.246094 595.367188 712.371094 602.753906 709.441406 C 595.367188 712.371094 584.273438 713.246094 575.800781 702.066406 C 570.273438 708.964844 555.800781 717.753906 544.582031 723.203125 L 549.453125 730.804688 L 607.921875 730.804688 C 608.0625 724.796875 607.714844 716.015625 605.222656 708.347656 C 605.183594 701.109375 606.195312 691.40625 607.023438 684.742188 L 610.21875 684.742188 C 617.136719 661.796875 633.199219 605.207031 625.359375 564.554688 L 642.496094 448.488281 L 632.296875 447.84375 L 646.742188 448.753906 C 646.761719 448.753906 646.78125 448.753906 646.800781 448.753906 C 646.808594 448.753906 646.820312 448.75 646.828125 448.75 L 654.035156 684.742188 L 655.816406 684.742188 C 655.800781 685.238281 655.777344 685.710938 655.777344 686.226562 C 655.777344 695.277344 655.25 702.203125 654.808594 711.847656 C 654.773438 712.570312 654.742188 713.308594 654.710938 714.066406 C 654.699219 714.347656 654.6875 714.640625 654.675781 714.925781 C 654.660156 715.351562 654.640625 715.78125 654.625 716.21875 C 654.609375 716.6875 654.589844 717.164062 654.574219 717.644531 C 654.566406 717.921875 654.554688 718.199219 654.546875 718.480469 C 654.527344 719.050781 654.507812 719.636719 654.488281 720.230469 C 654.484375 720.398438 654.480469 720.570312 654.472656 720.738281 C 654.351562 724.941406 654.261719 729.660156 654.238281 735.175781 C 654.230469 736.738281 655.496094 738.015625 657.058594 738.015625 L 706.574219 738.015625 C 708.296875 738.015625 709.648438 736.476562 709.371094 734.777344 C 708.320312 728.367188 704.203125 723.859375 699.5 719.578125 C 699.503906 719.578125 699.507812 719.578125 699.507812 719.578125 C 699.339844 719.425781 699.167969 719.273438 698.996094 719.121094 C 697.582031 717.847656 696.128906 716.578125 694.691406 715.289062 C 694.355469 714.988281 694.023438 714.683594 693.691406 714.378906 C 693.339844 714.054688 692.988281 713.726562 692.636719 713.398438 C 692.28125 713.0625 691.933594 712.71875 691.589844 712.375 C 691.273438 712.0625 690.960938 711.746094 690.652344 711.429688 C 690.300781 711.0625 689.960938 710.679688 689.621094 710.300781 C 689.339844 709.988281 689.054688 709.675781 688.785156 709.355469 C 688.441406 708.941406 688.117188 708.515625 687.789062 708.085938 C 687.550781 707.777344 687.308594 707.472656 687.082031 707.152344 C 686.738281 706.660156 686.421875 706.144531 686.109375 705.628906 C 685.9375 705.347656 685.75 705.078125 685.585938 704.789062 C 685.136719 703.984375 684.726562 703.148438 684.363281 702.273438 C 684.359375 702.261719 684.351562 702.25 684.347656 702.238281 C 684.199219 701.878906 684.078125 701.515625 683.941406 701.152344 C 681.945312 695.71875 681.617188 690.242188 681.816406 684.738281 L 685.757812 684.738281 C 688.414062 668.9375 693.417969 638.617188 695.824219 620.617188 C 699.179688 595.457031 694.207031 558.480469 694.207031 558.480469 L 696.453125 444.253906 C 696.457031 444.253906 696.464844 444.257812 696.46875 444.257812 C 696.984375 444.257812 697.40625 443.839844 697.40625 443.320312 C 697.40625 442.8125 696.996094 442.402344 696.488281 442.390625 L 696.734375 429.867188 C 698.449219 428.722656 699.574219 426.800781 699.574219 424.625 C 699.574219 419.328125 699.074219 410.617188 698.527344 401.1875 C 703.113281 417.570312 708.472656 436.667969 710.398438 443.527344 L 710.382812 443.535156 C 709.96875 443.660156 709.734375 444.097656 709.859375 444.515625 C 709.917969 444.695312 710.035156 444.832031 710.175781 444.925781 C 710.035156 445.152344 709.875 445.378906 709.753906 445.597656 C 706.707031 451.214844 706.121094 455.003906 707.003906 463.0625 C 706.722656 463.230469 706.570312 463.546875 706.636719 463.875 C 706.488281 463.832031 706.347656 463.769531 706.195312 463.753906 C 704.097656 463.496094 702.273438 465.175781 702.359375 467.285156 L 702.808594 478.289062 C 702.847656 479.3125 703.34375 480.261719 704.164062 480.878906 L 711.875 486.707031 C 712.304688 487.457031 712.820312 488.125 713.476562 488.636719 C 713.980469 489.035156 714.601562 489.242188 715.230469 489.242188 C 715.242188 489.242188 715.253906 489.234375 715.269531 489.234375 C 716.472656 490.058594 718.070312 490.046875 719.246094 489.160156 L 734.902344 477.351562 C 735.800781 476.675781 736.308594 475.601562 736.261719 474.480469 Z M 656.964844 712.296875 C 657.117188 712.304688 657.269531 712.308594 657.429688 712.300781 C 657.269531 712.308594 657.117188 712.304688 656.964844 712.296875 Z M 662.210938 710.1875 C 662.574219 709.875 662.9375 709.535156 663.304688 709.140625 C 663.777344 708.640625 664.25 708.164062 664.722656 707.699219 C 664.25 708.164062 663.777344 708.640625 663.308594 709.140625 C 662.9375 709.535156 662.574219 709.875 662.210938 710.1875 Z M 657.863281 712.269531 C 658.039062 712.25 658.21875 712.21875 658.402344 712.183594 C 658.21875 712.21875 658.039062 712.25 657.863281 712.269531 Z M 658.800781 712.097656 C 659.109375 712.015625 659.421875 711.914062 659.738281 711.78125 C 659.421875 711.914062 659.109375 712.015625 658.800781 712.097656 Z M 659.976562 711.660156 C 660.238281 711.539062 660.503906 711.402344 660.773438 711.238281 C 660.503906 711.402344 660.238281 711.539062 659.976562 711.660156 Z M 661.125 711.007812 C 661.375 710.84375 661.628906 710.65625 661.878906 710.453125 C 661.628906 710.65625 661.375 710.84375 661.125 711.007812 Z M 678.695312 700.433594 C 677.8125 700.480469 676.933594 700.605469 676.054688 700.8125 C 675.554688 700.925781 675.054688 701.078125 674.558594 701.246094 C 676.796875 700.496094 679.054688 700.234375 681.316406 700.542969 C 680.445312 700.425781 679.570312 700.390625 678.695312 700.433594 Z M 665.15625 707.292969 C 665.492188 706.972656 665.828125 706.664062 666.167969 706.367188 C 665.828125 706.664062 665.492188 706.972656 665.15625 707.292969 Z M 666.664062 705.9375 C 667 705.648438 667.339844 705.375 667.679688 705.109375 C 667.339844 705.375 667 705.648438 666.664062 705.9375 Z M 668.125 704.757812 C 669.09375 704.023438 670.070312 703.378906 671.050781 702.824219 C 670.070312 703.378906 669.09375 704.023438 668.125 704.757812 Z M 671.496094 702.585938 C 671.847656 702.398438 672.195312 702.21875 672.546875 702.054688 C 672.199219 702.21875 671.847656 702.398438 671.496094 702.585938 Z M 673.050781 701.828125 C 673.40625 701.675781 673.757812 701.535156 674.113281 701.40625 C 673.757812 701.535156 673.40625 701.675781 673.050781 701.828125 Z M 682.628906 700.785156 C 682.234375 700.695312 681.839844 700.625 681.449219 700.566406 C 681.839844 700.625 682.234375 700.691406 682.628906 700.785156 Z M 684.175781 432.355469 C 683.652344 432.421875 683.132812 432.496094 682.609375 432.566406 C 683.90625 432.402344 685.195312 432.226562 686.476562 432.046875 C 685.710938 432.15625 684.949219 432.261719 684.179688 432.363281 C 684.179688 432.363281 684.175781 432.359375 684.175781 432.355469 Z M 688.484375 431.773438 C 690.433594 431.492188 692.363281 431.191406 694.273438 430.863281 C 692.363281 431.1875 690.433594 431.488281 688.484375 431.773438 Z M 680.125 432.855469 C 678.976562 432.988281 677.828125 433.121094 676.667969 433.238281 C 677.828125 433.117188 678.976562 432.988281 680.125 432.855469 Z M 673.898438 433.503906 C 672.832031 433.605469 671.761719 433.703125 670.6875 433.792969 C 671.761719 433.703125 672.828125 433.605469 673.898438 433.503906 Z M 667.691406 434.023438 C 666.6875 434.097656 665.683594 434.164062 664.675781 434.226562 C 665.683594 434.164062 666.6875 434.097656 667.691406 434.023438 Z M 661.464844 434.417969 C 660.546875 434.46875 659.628906 434.507812 658.707031 434.550781 C 659.628906 434.511719 660.546875 434.46875 661.464844 434.417969 Z M 564.886719 112.59375 C 580.953125 108.617188 597.207031 118.410156 601.1875 134.46875 C 605.164062 150.515625 595.363281 166.761719 579.300781 170.738281 C 563.242188 174.714844 546.992188 164.921875 543.011719 148.871094 C 539.03125 132.816406 548.832031 116.570312 564.886719 112.59375 Z M 584.03125 264.164062 C 584.007812 264.171875 583.984375 264.1875 583.960938 264.195312 C 578.847656 265.96875 574.4375 269.722656 571.992188 275.042969 L 542.199219 327.371094 L 561.65625 354.621094 L 543.617188 329.351562 L 542.195312 330.785156 L 513.074219 293.015625 L 531.664062 293.015625 C 536.109375 293.015625 539.710938 289.417969 539.710938 284.972656 L 539.710938 203.21875 C 540.257812 203.507812 540.804688 203.800781 541.359375 204.078125 L 550.191406 195.285156 C 554.007812 196.84375 557.976562 198 562.078125 198.707031 L 564.882812 210.875 C 568.765625 211.285156 572.714844 211.34375 576.703125 211.078125 L 579.949219 199.054688 C 581.984375 198.773438 584.003906 198.390625 586.03125 197.890625 C 588.066406 197.386719 590.03125 196.78125 591.960938 196.078125 L 600.449219 205.195312 C 604.101562 203.574219 607.566406 201.675781 610.808594 199.503906 L 607.601562 187.433594 C 610.898438 184.894531 613.871094 182.019531 616.503906 178.863281 L 617.09375 179.042969 C 617.257812 179.625 617.476562 180.140625 617.738281 180.613281 C 616.015625 184.023438 614.890625 187.804688 614.558594 191.847656 C 614.125 197.113281 615.058594 202.171875 617.058594 206.683594 C 617.019531 207.503906 617.011719 207.964844 617.011719 207.964844 L 617.300781 224.839844 C 617.433594 232.476562 621.222656 239.367188 627.027344 243.5625 L 626.945312 252.511719 C 612.753906 254.246094 598.511719 258.121094 584.03125 264.164062 Z M 621.195312 183.304688 C 620.964844 184.027344 620.746094 184.746094 620.539062 185.464844 C 620.746094 184.746094 620.964844 184.027344 621.195312 183.304688 Z M 620.351562 186.136719 C 620.210938 186.632812 620.078125 187.128906 619.949219 187.621094 C 620.078125 187.128906 620.210938 186.632812 620.351562 186.136719 Z M 619.757812 188.363281 C 619.636719 188.847656 619.523438 189.328125 619.410156 189.804688 C 619.523438 189.328125 619.636719 188.847656 619.757812 188.363281 Z M 619.257812 190.464844 C 619.125 191.074219 618.996094 191.679688 618.875 192.273438 C 618.996094 191.679688 619.125 191.074219 619.257812 190.464844 Z M 618.828125 192.484375 C 618.695312 193.152344 618.570312 193.8125 618.457031 194.457031 C 618.570312 193.8125 618.695312 193.152344 618.828125 192.484375 Z M 618.367188 194.992188 C 618.285156 195.453125 618.210938 195.910156 618.140625 196.355469 C 618.207031 195.90625 618.285156 195.453125 618.367188 194.992188 Z M 618.042969 196.972656 C 617.980469 197.390625 617.917969 197.800781 617.863281 198.199219 C 617.917969 197.800781 617.980469 197.390625 618.042969 196.972656 Z M 617.789062 198.753906 C 617.726562 199.226562 617.667969 199.6875 617.613281 200.132812 C 617.664062 199.6875 617.726562 199.226562 617.789062 198.753906 Z M 617.582031 200.386719 C 617.519531 200.914062 617.464844 201.421875 617.414062 201.90625 C 617.464844 201.421875 617.519531 200.914062 617.582031 200.386719 Z M 617.378906 202.304688 C 617.34375 202.640625 617.316406 202.96875 617.285156 203.277344 C 617.3125 202.96875 617.34375 202.640625 617.378906 202.304688 Z M 617.246094 203.765625 C 617.226562 204.019531 617.207031 204.269531 617.1875 204.503906 C 617.207031 204.269531 617.226562 204.023438 617.246094 203.765625 Z M 617.15625 204.964844 C 617.140625 205.175781 617.128906 205.375 617.117188 205.566406 C 617.128906 205.375 617.140625 205.175781 617.15625 204.964844 Z M 617.09375 205.960938 C 617.085938 206.078125 617.082031 206.167969 617.078125 206.273438 C 617.082031 206.167969 617.085938 206.074219 617.09375 205.960938 Z M 602.523438 432.386719 C 602.441406 432.375 602.355469 432.367188 602.273438 432.355469 C 602.320312 432.359375 602.363281 432.367188 602.410156 432.371094 C 602.449219 432.378906 602.488281 432.382812 602.523438 432.386719 Z M 590.132812 430.445312 C 589.960938 430.375 589.789062 430.296875 589.625 430.210938 C 589.789062 430.292969 589.957031 430.375 590.132812 430.445312 Z M 591.449219 430.820312 C 591.117188 430.765625 590.796875 430.679688 590.488281 430.574219 C 590.800781 430.679688 591.117188 430.765625 591.449219 430.820312 Z M 607.636719 432.976562 C 607.820312 432.992188 608.003906 433.015625 608.1875 433.035156 C 608.003906 433.015625 607.820312 432.992188 607.636719 432.976562 Z M 625.199219 434.390625 C 625.433594 434.402344 625.667969 434.410156 625.898438 434.425781 C 625.664062 434.414062 625.433594 434.402344 625.199219 434.390625 Z M 613.339844 433.535156 C 613.605469 433.558594 613.875 433.582031 614.140625 433.605469 C 613.875 433.585938 613.605469 433.558594 613.339844 433.535156 Z M 619.222656 434.011719 C 619.503906 434.03125 619.789062 434.050781 620.074219 434.070312 C 619.789062 434.050781 619.507812 434.03125 619.222656 434.011719 Z M 647.449219 448.492188 C 647.464844 448.480469 647.472656 448.457031 647.484375 448.441406 C 647.472656 448.457031 647.464844 448.480469 647.449219 448.492188 Z M 647.648438 448.222656 C 647.695312 448.117188 647.730469 448 647.734375 447.878906 C 647.730469 448 647.699219 448.117188 647.648438 448.222656 Z M 652.921875 434.757812 C 653.6875 434.738281 654.453125 434.71875 655.214844 434.695312 C 654.453125 434.722656 653.6875 434.738281 652.921875 434.757812 Z M 648.042969 434.859375 C 648.34375 434.855469 648.644531 434.855469 648.941406 434.851562 C 648.644531 434.859375 648.34375 434.855469 648.042969 434.859375 Z M 682.652344 433.539062 C 682.519531 433.222656 682.394531 432.910156 682.277344 432.609375 C 682.394531 432.910156 682.519531 433.222656 682.652344 433.539062 Z M 685.402344 438.417969 C 685.402344 438.417969 685.398438 438.414062 685.398438 438.410156 C 685.398438 438.414062 685.402344 438.417969 685.402344 438.417969 Z M 683.566406 435.480469 C 683.550781 435.449219 683.539062 435.417969 683.523438 435.390625 C 683.539062 435.421875 683.550781 435.449219 683.566406 435.480469 Z M 695.546875 430.496094 C 695.578125 430.484375 695.601562 430.46875 695.632812 430.457031 C 695.605469 430.46875 695.578125 430.484375 695.546875 430.496094 Z M 698.0625 393.070312 C 698.128906 394.257812 698.195312 395.445312 698.265625 396.628906 C 698.195312 395.445312 698.128906 394.257812 698.0625 393.070312 Z M 697.625 384.6875 C 697.679688 385.890625 697.742188 387.113281 697.808594 388.339844 C 697.746094 387.113281 697.679688 385.890625 697.625 384.6875 Z M 697.863281 389.386719 C 697.917969 390.433594 697.976562 391.484375 698.035156 392.539062 C 697.976562 391.484375 697.917969 390.433594 697.863281 389.386719 Z M 698.367188 398.421875 C 698.390625 398.832031 698.414062 399.238281 698.4375 399.644531 C 698.414062 399.238281 698.390625 398.832031 698.367188 398.421875 Z M 698.367188 398.421875 " fill-opacity="1" fill-rule="nonzero"/></g><g clip-path="url(#57e99e08b6)"><path fill="#eaeaea" d="M 530.976562 734.835938 C 530.753906 736.519531 532.078125 738.019531 533.78125 738.019531 L 604.894531 738.019531 C 606.371094 738.019531 607.597656 736.886719 607.703125 735.414062 C 607.792969 734.210938 607.882812 732.632812 607.921875 730.804688 L 549.457031 730.804688 L 544.585938 723.203125 C 542.878906 724.027344 541.246094 724.78125 539.734375 725.4375 C 533.085938 728.316406 531.40625 731.636719 530.976562 734.835938 Z M 530.976562 734.835938 " fill-opacity="1" fill-rule="nonzero"/></g><path fill="#eaeaea" d="M 255.339844 362.316406 C 255.339844 366.734375 258.925781 370.320312 263.347656 370.320312 L 298.738281 370.320312 C 297.789062 367.953125 297.253906 365.378906 297.253906 362.671875 C 297.253906 351.3125 306.464844 342.105469 317.828125 342.105469 C 329.195312 342.105469 338.40625 351.3125 338.40625 362.671875 C 338.40625 365.378906 337.871094 367.953125 336.917969 370.320312 L 374.503906 370.320312 C 378.925781 370.320312 382.511719 366.734375 382.511719 362.316406 L 382.511719 323.917969 C 385.367188 325.449219 388.632812 326.320312 392.097656 326.320312 C 403.335938 326.320312 412.445312 317.214844 412.445312 305.980469 C 412.445312 294.75 403.335938 285.644531 392.097656 285.644531 C 388.632812 285.644531 385.367188 286.515625 382.511719 288.042969 L 382.511719 251.210938 C 382.511719 246.792969 378.925781 243.207031 374.503906 243.207031 L 303.023438 243.207031 C 303.070312 243.007812 303.117188 242.792969 303.160156 242.59375 L 306.128906 237.246094 C 307.003906 235.332031 305.984375 233.082031 303.972656 232.472656 C 302.582031 232.050781 301.191406 232.5625 300.316406 233.605469 C 300.183594 232.019531 299.070312 230.597656 297.40625 230.1875 C 295.511719 229.726562 293.699219 230.78125 292.953125 232.519531 C 293.035156 230.5 291.519531 228.695312 289.421875 228.511719 C 287.234375 228.324219 285.421875 230 285.207031 232.1875 C 285.191406 232.328125 285.179688 232.515625 285.164062 232.722656 L 282.644531 232.496094 C 282.011719 230.78125 280.226562 229.667969 278.320312 230.019531 C 277.160156 230.234375 276.261719 230.941406 275.722656 231.882812 L 275.277344 231.84375 C 275.277344 231.84375 274.558594 236.058594 273.648438 242.640625 C 272.925781 241.292969 272.027344 239.5625 271.160156 237.710938 C 270.097656 235.453125 268.90625 233.84375 267.734375 232.734375 C 268.675781 231.066406 269.585938 229.382812 270.433594 227.664062 L 262.992188 220.191406 C 264.457031 212.664062 266.3125 206.007812 267.015625 195.8125 L 280.554688 192.695312 C 281.160156 186.925781 281.253906 181.054688 280.855469 175.125 L 262.964844 170.300781 C 262.546875 167.277344 261.980469 164.273438 261.234375 161.261719 C 260.480469 158.234375 259.582031 155.3125 258.539062 152.445312 L 272.105469 139.828125 C 269.6875 134.402344 266.867188 129.25 263.632812 124.429688 L 245.675781 129.191406 C 241.894531 124.296875 237.601562 119.878906 232.925781 115.960938 L 238.351562 98.230469 C 233.597656 94.789062 228.558594 91.75 223.292969 89.15625 L 210.136719 102.230469 C 204.488281 99.925781 198.574219 98.191406 192.476562 97.136719 L 188.308594 79.046875 C 182.535156 78.4375 176.660156 78.347656 170.730469 78.746094 L 165.902344 96.628906 C 162.875 97.042969 159.871094 97.613281 156.839844 98.363281 C 153.828125 99.109375 150.90625 100.007812 148.035156 101.050781 L 135.414062 87.492188 C 129.984375 89.90625 124.828125 92.730469 120.007812 95.960938 L 124.773438 113.910156 C 119.875 117.6875 115.457031 121.976562 111.519531 126.660156 L 93.792969 121.230469 C 90.347656 125.980469 87.308594 131.019531 84.714844 136.28125 L 97.796875 149.433594 C 95.472656 155.082031 93.753906 160.988281 92.699219 167.082031 L 74.597656 171.246094 C 73.988281 177.015625 73.898438 182.890625 74.292969 188.816406 L 92.1875 193.640625 C 92.601562 196.664062 93.167969 199.667969 93.921875 202.699219 C 94.667969 205.710938 95.566406 208.628906 96.609375 211.5 L 83.042969 224.117188 C 85.460938 229.542969 88.28125 234.691406 91.515625 239.511719 L 109.472656 234.75 C 113.25 239.648438 117.527344 244.070312 122.230469 248 L 116.796875 265.714844 C 119.90625 267.964844 123.152344 270.027344 126.488281 271.921875 C 112.214844 297.808594 106.433594 332.140625 130.511719 354.601562 C 131.242188 353.894531 131.921875 353.253906 132.53125 352.699219 C 133.230469 353.3125 134.054688 353.808594 134.976562 354.148438 C 135.28125 354.257812 135.597656 354.363281 135.90625 354.472656 L 130.984375 355.066406 C 130.816406 354.914062 130.675781 354.753906 130.511719 354.601562 C 120.503906 364.253906 99.90625 387.636719 99.90625 416.578125 L 101.457031 498.609375 C 101.625 509.9375 99.738281 521.203125 95.839844 531.839844 C 79.542969 576.289062 82.613281 647.824219 82.613281 678.851562 L 85.367188 678.851562 C 85.375 682.933594 85.34375 687.472656 85.238281 692.175781 C 85.238281 692.179688 85.238281 692.179688 85.238281 692.183594 C 85.238281 692.179688 85.238281 692.179688 85.238281 692.175781 C 84.082031 700.839844 82.566406 707.265625 82.378906 715.488281 L 82.210938 715.488281 C 81.78125 715.488281 81.425781 715.839844 81.425781 716.273438 C 81.425781 716.707031 81.78125 717.058594 82.210938 717.058594 L 82.359375 717.058594 C 82.355469 718.859375 82.414062 720.742188 82.554688 722.765625 L 128.144531 722.765625 C 128.058594 720.230469 127.460938 718.136719 126.546875 716.316406 C 126.546875 716.300781 126.554688 716.289062 126.554688 716.273438 C 126.554688 715.992188 126.398438 715.757812 126.175781 715.621094 C 121.585938 707.546875 110.601562 704.972656 110.523438 692.566406 C 110.359375 691.574219 110.074219 690.769531 109.6875 690.121094 C 109.871094 690.433594 110.039062 690.785156 110.175781 691.171875 C 110.25 687.308594 110.542969 683.003906 110.929688 678.851562 L 114.054688 678.851562 L 148.230469 531.203125 L 152.332031 503.1875 C 152.347656 503.355469 152.359375 503.523438 152.375 503.691406 L 150.363281 518.914062 C 150.296875 519.429688 150.660156 519.898438 151.171875 519.964844 C 151.210938 519.972656 151.253906 519.972656 151.292969 519.972656 C 151.757812 519.972656 152.160156 519.632812 152.222656 519.160156 L 165.375 419.558594 L 152.847656 514.421875 C 152.757812 520.347656 152.085938 526.183594 150.8125 531.839844 C 140.792969 576.289062 150.480469 647.824219 154.863281 678.851562 L 156.476562 678.851562 C 156.566406 684.386719 156.21875 689.792969 155.121094 694.59375 C 155.113281 694.613281 151.839844 703.132812 152.070312 715.492188 C 151.640625 715.496094 151.292969 715.84375 151.292969 716.273438 C 151.292969 716.707031 151.644531 717.058594 152.078125 717.058594 L 152.109375 717.058594 C 152.1875 718.894531 152.34375 720.800781 152.601562 722.773438 L 229.652344 722.765625 C 229.652344 722.765625 230.261719 720.058594 228.792969 716.964844 C 229.046875 716.835938 229.226562 716.578125 229.226562 716.273438 C 229.226562 715.839844 228.875 715.488281 228.441406 715.488281 L 227.929688 715.488281 C 226.648438 713.644531 224.527344 711.792969 220.988281 710.402344 C 211.507812 706.679688 199.367188 703.800781 185.636719 688.921875 C 173.96875 700.941406 156.894531 695.222656 155.261719 694.640625 C 156.886719 695.222656 173.875 700.90625 185.542969 689.015625 C 185.324219 685.976562 185.269531 682.5 185.304688 678.851562 L 186.304688 678.851562 L 199.851562 531.203125 L 196.683594 402.921875 L 196.683594 359.769531 C 197.707031 359.410156 198.625 358.835938 199.398438 358.097656 C 204.269531 360.570312 210.347656 360.117188 214.84375 356.429688 L 270.609375 310.753906 L 255.339844 323.261719 Z M 108.6875 688.972656 C 108.550781 688.863281 108.421875 688.742188 108.277344 688.648438 C 108.421875 688.746094 108.550781 688.863281 108.6875 688.972656 Z M 107.851562 688.433594 C 107.699219 688.359375 107.550781 688.28125 107.390625 688.222656 C 107.550781 688.28125 107.699219 688.359375 107.851562 688.433594 Z M 106.914062 688.089844 C 106.746094 688.046875 106.582031 688.003906 106.40625 687.976562 C 106.582031 688.003906 106.746094 688.046875 106.914062 688.089844 Z M 105.886719 687.925781 C 105.707031 687.910156 105.523438 687.898438 105.335938 687.894531 C 105.523438 687.898438 105.703125 687.910156 105.886719 687.925781 Z M 104.785156 687.914062 C 104.589844 687.925781 104.394531 687.941406 104.195312 687.964844 C 104.394531 687.941406 104.589844 687.929688 104.785156 687.914062 Z M 103.621094 688.046875 C 103.414062 688.082031 103.207031 688.121094 103 688.167969 C 103.207031 688.121094 103.414062 688.082031 103.621094 688.046875 Z M 102.40625 688.304688 C 102.191406 688.359375 101.976562 688.417969 101.761719 688.484375 C 101.976562 688.421875 102.191406 688.359375 102.40625 688.304688 Z M 101.164062 688.667969 C 100.941406 688.742188 100.71875 688.820312 100.496094 688.902344 C 100.71875 688.820312 100.941406 688.742188 101.164062 688.667969 Z M 99.90625 689.121094 C 99.675781 689.210938 99.449219 689.308594 99.21875 689.40625 C 99.449219 689.308594 99.675781 689.214844 99.90625 689.121094 Z M 98.644531 689.652344 C 98.410156 689.757812 98.175781 689.867188 97.941406 689.976562 C 98.175781 689.867188 98.40625 689.757812 98.644531 689.652344 Z M 97.394531 690.238281 C 97.152344 690.359375 96.910156 690.484375 96.667969 690.609375 C 96.910156 690.484375 97.152344 690.359375 97.394531 690.238281 Z M 96.175781 690.863281 C 95.90625 691.007812 95.640625 691.15625 95.375 691.304688 C 95.640625 691.160156 95.902344 691.011719 96.175781 690.863281 Z M 95.003906 691.515625 C 94.617188 691.734375 94.242188 691.953125 93.878906 692.175781 C 94.242188 691.953125 94.617188 691.734375 95.003906 691.515625 Z M 109.046875 689.277344 C 109.179688 689.417969 109.292969 689.589844 109.414062 689.75 C 109.292969 689.585938 109.179688 689.417969 109.046875 689.277344 Z M 263.285156 243.214844 C 262.503906 243.222656 261.765625 243.371094 261.054688 243.585938 C 261.046875 243.261719 261.039062 242.941406 261.035156 242.625 L 261.355469 242.722656 C 261.898438 241.972656 262.414062 241.203125 262.9375 240.4375 C 263.046875 241.34375 263.160156 242.269531 263.285156 243.214844 Z M 208.046875 267.472656 C 207.941406 267.363281 207.839844 267.257812 207.734375 267.152344 C 207.839844 267.257812 207.941406 267.363281 208.046875 267.472656 Z M 153.285156 359.199219 C 153.148438 359.171875 153.015625 359.148438 152.882812 359.121094 C 153.011719 359.148438 153.148438 359.171875 153.285156 359.199219 Z M 149.554688 358.410156 C 149.46875 358.390625 149.382812 358.371094 149.296875 358.355469 C 149.382812 358.371094 149.46875 358.390625 149.554688 358.410156 Z M 145.925781 357.53125 C 145.886719 357.523438 145.84375 357.511719 145.804688 357.5 C 145.84375 357.511719 145.886719 357.519531 145.925781 357.53125 Z M 157.125 359.890625 C 156.929688 359.859375 156.734375 359.832031 156.539062 359.796875 C 156.734375 359.828125 156.929688 359.859375 157.125 359.890625 Z M 173.242188 361.507812 C 172.761719 361.488281 172.28125 361.480469 171.800781 361.460938 C 172.28125 361.480469 172.761719 361.492188 173.242188 361.507812 Z M 169.144531 361.292969 C 168.730469 361.265625 168.316406 361.246094 167.90625 361.210938 C 168.320312 361.242188 168.730469 361.265625 169.144531 361.292969 Z M 165.078125 360.949219 C 164.742188 360.914062 164.398438 360.886719 164.058594 360.851562 C 164.398438 360.886719 164.742188 360.914062 165.078125 360.949219 Z M 161.058594 360.476562 C 160.796875 360.441406 160.53125 360.410156 160.269531 360.375 C 160.53125 360.410156 160.796875 360.441406 161.058594 360.476562 Z M 175.722656 361.582031 C 176.277344 361.589844 176.835938 361.578125 177.390625 361.578125 C 176.835938 361.578125 176.28125 361.589844 175.722656 361.582031 Z M 209.640625 269.199219 C 209.734375 269.300781 209.824219 269.40625 209.914062 269.507812 C 209.824219 269.40625 209.734375 269.300781 209.640625 269.199219 Z M 211.621094 271.664062 C 212.046875 271.929688 212.46875 272.199219 212.878906 272.503906 C 212.46875 272.199219 212.046875 271.929688 211.621094 271.664062 Z M 166.851562 138.742188 C 186.253906 133.9375 205.839844 142.640625 215.6875 158.871094 C 215.261719 158.953125 214.84375 159.019531 214.417969 159.113281 C 189.289062 163.683594 174.734375 162.902344 169.714844 191.59375 C 166.839844 208.003906 167.621094 216.226562 164.183594 224.460938 C 149.878906 219.941406 138.191406 208.308594 134.320312 192.695312 C 128.402344 168.8125 142.972656 144.652344 166.851562 138.742188 Z M 130.089844 345.210938 C 129.992188 345.640625 129.941406 346.066406 129.917969 346.488281 C 129.941406 346.066406 129.992188 345.640625 130.089844 345.210938 Z M 129.910156 346.863281 C 129.910156 347.171875 129.925781 347.480469 129.960938 347.785156 C 129.925781 347.480469 129.910156 347.171875 129.910156 346.863281 Z M 130.285156 349.335938 C 130.15625 348.953125 130.070312 348.554688 130.003906 348.152344 C 130.070312 348.554688 130.160156 348.953125 130.285156 349.335938 Z M 130.328125 349.429688 C 130.449219 349.78125 130.601562 350.121094 130.773438 350.449219 C 130.601562 350.121094 130.449219 349.78125 130.328125 349.429688 Z M 131.699219 351.835938 C 131.957031 352.140625 132.226562 352.429688 132.53125 352.695312 C 132.226562 352.429688 131.957031 352.140625 131.699219 351.835938 Z M 130.976562 350.804688 C 131.121094 351.046875 131.28125 351.28125 131.449219 351.507812 C 131.277344 351.28125 131.121094 351.046875 130.976562 350.804688 Z M 142.449219 356.578125 C 142.433594 356.574219 142.417969 356.570312 142.402344 356.566406 C 142.417969 356.570312 142.433594 356.574219 142.449219 356.578125 Z M 183.632812 361.429688 C 184.34375 361.386719 185.058594 361.324219 185.769531 361.273438 C 185.058594 361.324219 184.34375 361.386719 183.632812 361.429688 Z M 179.675781 361.574219 C 180.304688 361.5625 180.933594 361.527344 181.566406 361.507812 C 180.933594 361.527344 180.304688 361.5625 179.675781 361.574219 Z M 191.550781 360.695312 C 192.863281 360.519531 194.175781 360.320312 195.480469 360.09375 C 194.175781 360.320312 192.863281 360.519531 191.550781 360.695312 Z M 187.597656 361.136719 C 188.4375 361.058594 189.273438 360.953125 190.113281 360.855469 C 189.273438 360.953125 188.4375 361.058594 187.597656 361.136719 Z M 211.933594 322.710938 C 212.328125 321.335938 212.71875 319.964844 213.097656 318.589844 L 215.472656 320.351562 Z M 255.164062 293.929688 C 255.21875 293.535156 255.277344 293.144531 255.339844 292.753906 L 255.339844 293.808594 L 259.496094 291.042969 Z M 255.164062 293.929688 " fill-opacity="1" fill-rule="nonzero"/><path fill="#eaeaea" d="M 148.035156 101.050781 L 135.414062 87.488281 C 129.984375 89.90625 124.832031 92.726562 120.007812 95.957031 L 124.773438 113.90625 C 119.878906 117.683594 115.457031 121.976562 111.519531 126.65625 L 93.796875 121.226562 C 90.351562 125.980469 87.3125 131.015625 84.714844 136.28125 L 97.796875 149.429688 C 95.472656 155.082031 93.757812 160.984375 92.699219 167.078125 L 74.597656 171.246094 C 73.988281 177.015625 73.898438 182.890625 74.292969 188.816406 L 92.1875 193.640625 C 92.601562 196.664062 93.171875 199.667969 93.921875 202.699219 C 94.667969 205.710938 95.566406 208.628906 96.609375 211.5 L 83.042969 224.117188 C 85.460938 229.542969 88.28125 234.691406 91.515625 239.511719 L 109.472656 234.75 C 113.25 239.648438 117.527344 244.070312 122.230469 248 L 116.796875 265.714844 C 121.550781 269.15625 126.589844 272.195312 131.855469 274.792969 L 144.996094 261.71875 C 150.667969 264.039062 156.574219 265.753906 162.671875 266.808594 L 166.839844 284.90625 C 172.613281 285.511719 178.488281 285.605469 184.417969 285.207031 L 189.246094 267.324219 C 192.273438 266.90625 195.277344 266.339844 198.289062 265.59375 C 201.320312 264.84375 204.242188 263.945312 207.109375 262.898438 L 219.734375 276.460938 C 225.164062 274.042969 230.316406 271.222656 235.140625 267.992188 L 230.375 250.042969 C 235.273438 246.265625 239.695312 241.992188 243.613281 237.296875 L 261.355469 242.722656 C 264.796875 237.972656 267.835938 232.933594 270.433594 227.671875 L 257.355469 214.539062 C 259.660156 208.875 261.394531 202.964844 262.449219 196.871094 L 280.554688 192.703125 C 281.160156 186.933594 281.253906 181.0625 280.855469 175.132812 L 262.964844 170.308594 C 262.546875 167.285156 261.980469 164.28125 261.234375 161.269531 C 260.480469 158.242188 259.582031 155.320312 258.539062 152.453125 L 272.105469 139.835938 C 269.6875 134.410156 266.867188 129.257812 263.632812 124.4375 L 245.675781 129.199219 C 241.894531 124.304688 237.601562 119.886719 232.925781 115.96875 L 238.351562 98.238281 C 233.597656 94.792969 228.558594 91.757812 223.292969 89.160156 L 210.136719 102.238281 C 204.484375 99.929688 198.574219 98.199219 192.476562 97.144531 L 188.308594 79.046875 C 182.535156 78.4375 176.660156 78.347656 170.730469 78.746094 L 165.902344 96.628906 C 162.875 97.042969 159.871094 97.613281 156.839844 98.363281 C 153.828125 99.105469 150.90625 100.007812 148.035156 101.050781 Z M 166.851562 138.742188 C 190.742188 132.824219 214.914062 147.390625 220.832031 171.273438 C 226.746094 195.136719 212.175781 219.296875 188.285156 225.214844 C 164.40625 231.125 140.234375 216.558594 134.320312 192.695312 C 128.402344 168.8125 142.972656 144.652344 166.851562 138.742188 Z M 552.234375 87.25 L 543.75 78.132812 C 540.097656 79.757812 536.632812 81.652344 533.390625 83.824219 L 536.59375 95.894531 C 533.300781 98.433594 530.328125 101.320312 527.683594 104.46875 L 515.765625 100.816406 C 513.449219 104.011719 511.40625 107.398438 509.660156 110.9375 L 518.457031 119.777344 C 516.894531 123.578125 515.738281 127.550781 515.027344 131.648438 L 502.855469 134.449219 C 502.445312 138.332031 502.386719 142.28125 502.652344 146.265625 L 514.683594 149.511719 C 514.960938 151.542969 515.34375 153.5625 515.851562 155.597656 C 516.351562 157.625 516.957031 159.589844 517.660156 161.515625 L 508.535156 170 C 510.160156 173.648438 512.058594 177.113281 514.234375 180.351562 L 526.308594 177.152344 C 528.851562 180.441406 531.726562 183.417969 534.886719 186.058594 L 531.234375 197.972656 C 534.429688 200.285156 537.820312 202.328125 541.359375 204.074219 L 550.195312 195.285156 C 554.007812 196.84375 557.980469 197.996094 562.078125 198.707031 L 564.882812 210.875 C 568.765625 211.28125 572.71875 211.34375 576.703125 211.078125 L 579.949219 199.050781 C 581.984375 198.773438 584.003906 198.390625 586.03125 197.890625 C 588.070312 197.386719 590.035156 196.78125 591.964844 196.078125 L 600.449219 205.195312 C 604.101562 203.570312 607.566406 201.675781 610.808594 199.5 L 607.605469 187.433594 C 610.898438 184.890625 613.871094 182.015625 616.507812 178.863281 L 628.4375 182.511719 C 630.75 179.316406 632.796875 175.925781 634.542969 172.386719 L 625.746094 163.558594 C 627.296875 159.75 628.460938 155.777344 629.171875 151.679688 L 641.34375 148.875 C 641.753906 144.996094 641.816406 141.046875 641.546875 137.0625 L 629.515625 133.816406 C 629.238281 131.785156 628.855469 129.765625 628.351562 127.738281 C 627.847656 125.703125 627.242188 123.738281 626.539062 121.808594 L 635.664062 113.324219 C 634.039062 109.675781 632.140625 106.210938 629.964844 102.972656 L 617.890625 106.175781 C 615.351562 102.882812 612.464844 99.910156 609.316406 97.277344 L 612.96875 85.351562 C 609.769531 83.039062 606.378906 80.996094 602.839844 79.25 L 593.996094 88.042969 C 590.195312 86.492188 586.21875 85.328125 582.121094 84.617188 L 579.316406 72.449219 C 575.433594 72.042969 571.484375 71.980469 567.496094 72.246094 L 564.25 84.273438 C 562.214844 84.550781 560.195312 84.933594 558.15625 85.4375 C 556.132812 85.945312 554.167969 86.546875 552.234375 87.25 Z M 564.886719 112.59375 C 580.953125 108.617188 597.207031 118.410156 601.1875 134.46875 C 605.164062 150.515625 595.363281 166.761719 579.300781 170.738281 C 563.242188 174.714844 546.992188 164.921875 543.011719 148.871094 C 539.03125 132.816406 548.832031 116.570312 564.886719 112.59375 Z M 359.042969 502.082031 L 344.59375 489.664062 C 339.324219 492.75 334.378906 496.222656 329.820312 500.078125 L 336.742188 517.875 C 332.167969 522.292969 328.140625 527.183594 324.652344 532.417969 L 305.921875 528.894531 C 302.945312 534.144531 300.414062 539.636719 298.363281 545.3125 L 313.234375 557.253906 C 311.503906 563.296875 310.421875 569.527344 310.042969 575.875 L 292.015625 582.199219 C 292.054688 588.167969 292.632812 594.175781 293.714844 600.1875 L 312.550781 603.078125 C 313.320312 606.121094 314.246094 609.125 315.359375 612.132812 C 316.46875 615.125 317.722656 618.007812 319.117188 620.820312 L 306.691406 635.261719 C 309.78125 640.53125 313.257812 645.472656 317.113281 650.03125 L 334.917969 643.113281 C 339.339844 647.683594 344.214844 651.714844 349.46875 655.191406 L 345.941406 673.917969 C 351.195312 676.890625 356.691406 679.421875 362.371094 681.472656 L 374.300781 666.613281 C 380.363281 668.335938 386.597656 669.414062 392.945312 669.796875 L 399.273438 687.8125 C 405.246094 687.777344 411.257812 687.199219 417.273438 686.113281 L 420.164062 667.289062 C 423.207031 666.519531 426.210938 665.59375 429.207031 664.488281 C 432.21875 663.375 435.101562 662.121094 437.914062 660.726562 L 452.363281 673.144531 C 457.636719 670.054688 462.578125 666.585938 467.136719 662.730469 L 460.21875 644.933594 C 464.792969 640.511719 468.820312 635.640625 472.289062 630.394531 L 491.039062 633.914062 C 494.015625 628.664062 496.542969 623.167969 498.597656 617.496094 L 483.730469 605.570312 C 485.4375 599.515625 486.53125 593.28125 486.914062 586.933594 L 504.941406 580.609375 C 504.902344 574.640625 504.324219 568.628906 503.242188 562.617188 L 484.40625 559.730469 C 483.636719 556.6875 482.710938 553.683594 481.605469 550.691406 C 480.488281 547.679688 479.238281 544.796875 477.839844 541.988281 L 490.265625 527.542969 C 487.175781 522.277344 483.699219 517.335938 479.847656 512.777344 L 462.039062 519.699219 C 457.617188 515.125 452.726562 511.101562 447.496094 507.632812 L 451.015625 488.890625 C 445.765625 485.917969 440.265625 483.390625 434.589844 481.335938 L 422.640625 496.203125 C 416.601562 494.488281 410.359375 493.394531 404.011719 493.011719 L 397.683594 474.996094 C 391.710938 475.035156 385.699219 475.613281 379.683594 476.695312 L 376.792969 495.519531 C 373.75 496.289062 370.746094 497.214844 367.734375 498.328125 C 364.742188 499.433594 361.855469 500.6875 359.042969 502.082031 Z M 382.578125 538.449219 C 406.316406 529.675781 432.683594 541.796875 441.460938 565.527344 C 450.234375 589.238281 438.105469 615.589844 414.363281 624.367188 C 390.640625 633.132812 364.273438 621.007812 355.503906 597.296875 C 346.722656 573.570312 358.855469 547.21875 382.578125 538.449219 Z M 151.296875 519.972656 C 151.253906 519.972656 151.214844 519.972656 151.171875 519.964844 C 150.660156 519.898438 150.296875 519.425781 150.367188 518.914062 L 163.5625 418.984375 C 163.589844 418.769531 163.691406 418.574219 163.847656 418.425781 L 177.703125 405.265625 C 178.078125 404.90625 178.667969 404.921875 179.027344 405.300781 C 179.386719 405.675781 179.371094 406.265625 178.992188 406.621094 L 165.375 419.554688 L 152.222656 519.15625 C 152.160156 519.628906 151.757812 519.972656 151.296875 519.972656 Z M 646.804688 448.757812 C 646.78125 448.757812 646.765625 448.757812 646.742188 448.753906 L 632.300781 447.84375 C 631.78125 447.8125 631.390625 447.367188 631.421875 446.851562 C 631.457031 446.335938 631.886719 445.917969 632.414062 445.976562 L 646.859375 446.886719 C 647.375 446.917969 647.769531 447.363281 647.738281 447.878906 C 647.707031 448.375 647.292969 448.757812 646.804688 448.757812 Z M 602.523438 432.386719 C 600.707031 437.242188 596.628906 444.261719 588.25 444.261719 C 587.730469 444.261719 587.3125 443.839844 587.3125 443.324219 C 587.3125 442.808594 587.730469 442.390625 588.25 442.390625 C 595.316406 442.390625 598.917969 436.496094 600.621094 432.140625 C 601.253906 432.222656 601.886719 432.308594 602.523438 432.386719 Z M 697.40625 443.324219 C 697.40625 443.839844 696.984375 444.261719 696.46875 444.261719 C 688.210938 444.261719 684.136719 437.453125 682.277344 432.609375 C 682.914062 432.53125 683.542969 432.441406 684.175781 432.359375 C 685.914062 436.691406 689.519531 442.390625 696.46875 442.390625 C 696.984375 442.386719 697.40625 442.808594 697.40625 443.324219 Z M 697.40625 443.324219 " fill-opacity="1" fill-rule="nonzero"/><path fill="#5fa9e0" d="M 85.242188 692.175781 C 85.242188 692.175781 88.519531 695.429688 93.878906 692.175781 C 99.863281 688.546875 109.1875 684.503906 110.527344 692.5625 C 110.621094 708.011719 127.636719 708.210938 128.148438 722.765625 L 82.558594 722.765625 C 81.699219 710.621094 83.765625 703.21875 85.242188 692.175781 M 155.121094 694.589844 C 155.121094 694.589844 150.480469 706.578125 152.597656 722.769531 L 229.652344 722.761719 C 229.652344 722.761719 231.535156 714.542969 220.984375 710.402344 C 211.503906 706.679688 199.367188 703.800781 185.636719 688.921875 C 173.375 701.554688 155.121094 694.589844 155.121094 694.589844 M 253.761719 302.394531 L 213.601562 273.070312 C 213.382812 272.890625 213.105469 272.671875 212.878906 272.503906 C 212.46875 272.199219 212.042969 271.929688 211.617188 271.664062 C 204.746094 262.175781 193.257812 256.050781 180.519531 256.050781 C 162.753906 256.050781 147.417969 268.503906 143.777344 285.886719 L 130.089844 345.210938 C 129.214844 348.996094 131.328125 352.804688 134.976562 354.144531 C 151.765625 360.304688 174.410156 363.765625 195.476562 360.09375 C 198.179688 359.621094 200.410156 357.722656 201.339844 355.140625 C 203.851562 348.144531 209.066406 333.195312 213.097656 318.589844 L 224.058594 326.710938 Z M 535.695312 521.042969 C 524.332031 521.042969 515.117188 511.835938 515.117188 500.476562 C 515.117188 489.117188 524.332031 479.910156 535.695312 479.910156 C 538.480469 479.910156 541.128906 480.484375 543.550781 481.488281 L 543.550781 445.230469 C 543.550781 440.761719 539.925781 437.136719 535.453125 437.136719 L 496.601562 437.136719 C 498.148438 434.25 499.03125 430.953125 499.03125 427.449219 C 499.03125 416.089844 489.820312 406.882812 478.457031 406.882812 C 467.089844 406.882812 457.878906 416.089844 457.878906 427.449219 C 457.878906 430.953125 458.761719 434.25 460.308594 437.136719 L 423.039062 437.136719 C 418.566406 437.136719 414.941406 440.761719 414.941406 445.230469 L 414.941406 557.59375 C 414.941406 562.0625 418.566406 565.6875 423.039062 565.6875 L 535.457031 565.6875 C 539.929688 565.6875 543.554688 562.0625 543.554688 557.59375 L 543.554688 519.464844 C 541.128906 520.46875 538.484375 521.042969 535.695312 521.042969 Z M 728.585938 378.496094 C 725.605469 349.011719 724.691406 314.140625 724.167969 307.242188 C 723.460938 299.101562 722.78125 290.960938 721.765625 282.839844 C 720.808594 275.191406 715.921875 269.003906 709.394531 266.003906 C 709.402344 265.945312 709.410156 265.90625 709.410156 265.90625 C 694.28125 259.378906 679.5 255.058594 664.851562 252.953125 L 665.09375 256.1875 C 665.800781 266.332031 658.507812 275.304688 647.714844 276.035156 C 636.917969 276.765625 627.59375 269.132812 626.886719 258.992188 L 626.945312 252.515625 C 612.75 254.25 598.511719 258.121094 584.027344 264.164062 C 584.003906 264.175781 583.984375 264.1875 583.960938 264.199219 C 578.847656 265.972656 574.4375 269.726562 571.992188 275.046875 L 542.199219 327.371094 L 574.234375 372.246094 L 587.074219 343.273438 C 587.953125 354.164062 588.53125 363.445312 588.53125 368.691406 C 588.53125 384.691406 586.105469 412.871094 586.105469 424.582031 C 586.105469 427.695312 588.375 430.328125 591.449219 430.824219 C 624.53125 436.175781 662.054688 436.335938 694.269531 430.867188 C 697.324219 430.347656 699.570312 427.726562 699.570312 424.628906 C 699.570312 416.277344 698.328125 399.453125 697.621094 384.6875 Z M 251.160156 205.464844 C 247.691406 205.464844 244.667969 207.828125 243.125 211.296875 C 241.730469 210.65625 240.292969 210.675781 238.902344 211.359375 C 237.367188 207.855469 234.332031 205.464844 230.84375 205.464844 C 225.8125 205.464844 221.71875 210.433594 221.71875 216.542969 C 221.71875 222.652344 225.808594 227.621094 230.84375 227.621094 C 235.875 227.621094 239.96875 222.652344 239.96875 216.542969 C 239.96875 215.265625 239.78125 214.046875 239.453125 212.90625 C 240.507812 212.328125 241.519531 212.308594 242.570312 212.839844 C 242.230469 214 242.035156 215.242188 242.035156 216.542969 C 242.035156 222.652344 246.128906 227.621094 251.164062 227.621094 C 256.195312 227.621094 260.289062 222.652344 260.289062 216.542969 C 260.285156 210.433594 256.191406 205.464844 251.160156 205.464844 Z M 230.839844 226.015625 C 226.691406 226.015625 223.320312 221.765625 223.320312 216.539062 C 223.320312 211.316406 226.691406 207.066406 230.839844 207.066406 C 234.992188 207.066406 238.363281 211.316406 238.363281 216.539062 C 238.363281 221.765625 234.992188 226.015625 230.839844 226.015625 Z M 251.160156 226.015625 C 247.011719 226.015625 243.636719 221.765625 243.636719 216.539062 C 243.636719 211.316406 247.011719 207.066406 251.160156 207.066406 C 255.308594 207.066406 258.683594 211.316406 258.683594 216.539062 C 258.683594 221.765625 255.308594 226.015625 251.160156 226.015625 Z M 251.160156 226.015625 " fill-opacity="1" fill-rule="evenodd"/><g clip-path="url(#13c2d63116)"><path fill="#f5c0a2" d="M 306.128906 237.25 L 303.160156 242.597656 C 301.996094 248.066406 300.496094 254.207031 299.277344 259.761719 C 297.863281 266.222656 291.707031 269.257812 283.257812 267.996094 C 273.640625 266.558594 271.1875 262.117188 271.179688 262.105469 C 262.5 252.195312 263.828125 242.617188 262.113281 235.386719 C 261.363281 232.222656 261.15625 231.445312 262.671875 230.839844 C 264.351562 230.164062 268.257812 231.539062 271.160156 237.714844 C 272.027344 239.570312 272.925781 241.300781 273.648438 242.644531 C 274.558594 236.0625 275.277344 231.851562 275.277344 231.851562 L 275.722656 231.890625 C 276.261719 230.949219 277.160156 230.238281 278.320312 230.027344 C 280.226562 229.671875 282.015625 230.785156 282.644531 232.503906 L 285.164062 232.726562 C 285.179688 232.519531 285.191406 232.332031 285.207031 232.191406 C 285.421875 230.007812 287.230469 228.328125 289.421875 228.519531 C 291.519531 228.703125 293.03125 230.503906 292.953125 232.527344 C 293.699219 230.789062 295.511719 229.734375 297.40625 230.195312 C 299.070312 230.601562 300.1875 232.027344 300.316406 233.613281 C 301.191406 232.570312 302.582031 232.058594 303.972656 232.480469 C 305.984375 233.089844 307.003906 235.332031 306.128906 237.25 Z M 681.8125 684.742188 L 655.816406 684.742188 C 655.800781 685.238281 655.777344 685.714844 655.777344 686.230469 C 655.777344 695.28125 655.25 702.203125 654.808594 711.847656 C 657.078125 712.746094 660.042969 712.625 663.304688 709.140625 C 669.859375 702.144531 676.917969 698.820312 683.941406 701.15625 C 681.941406 695.722656 681.617188 690.242188 681.8125 684.742188 Z M 85.242188 692.175781 C 85.242188 692.175781 88.519531 695.429688 93.878906 692.175781 C 99.480469 688.777344 108.011719 685.019531 110.175781 691.171875 C 110.25 687.304688 110.542969 683 110.929688 678.851562 L 85.367188 678.851562 C 85.375 682.933594 85.34375 687.46875 85.242188 692.175781 C 85.238281 692.175781 85.238281 692.179688 85.238281 692.179688 C 85.242188 692.179688 85.242188 692.175781 85.242188 692.175781 Z M 155.121094 694.589844 C 155.121094 694.589844 173.277344 701.515625 185.539062 689.015625 C 185.324219 685.976562 185.269531 682.5 185.304688 678.851562 L 156.476562 678.851562 C 156.566406 684.386719 156.21875 689.789062 155.121094 694.589844 C 155.121094 694.589844 155.121094 694.59375 155.121094 694.59375 Z M 312.347656 285.546875 C 307.296875 285.546875 307.460938 285.640625 291.628906 285.574219 C 291.628906 285.574219 291.335938 285.570312 290.828125 285.570312 C 290.269531 285.566406 289.691406 285.566406 289.089844 285.5625 L 289.105469 285.585938 C 284.347656 285.667969 273.710938 286.117188 264.640625 288.402344 C 262.949219 288.828125 261.402344 289.628906 260.089844 290.691406 C 259.894531 290.808594 259.691406 290.917969 259.496094 291.046875 L 210.910156 323.394531 L 203.066406 309.933594 L 176.769531 326.84375 L 193.347656 352.28125 L 193.953125 353.210938 C 194.230469 353.636719 194.535156 354.046875 194.859375 354.449219 C 199.832031 360.511719 208.78125 361.398438 214.847656 356.429688 L 270.613281 310.753906 C 274.101562 311.195312 278.589844 311.578125 283.035156 311.507812 L 286.191406 314 C 286.828125 314.503906 287.644531 314.734375 288.453125 314.636719 L 293.878906 313.996094 C 294.890625 313.875 295.753906 313.222656 296.140625 312.28125 L 300.574219 301.585938 C 301.363281 299.6875 300.867188 297.5 299.339844 296.121094 L 296.082031 293.183594 C 299.6875 292.769531 307.21875 291.871094 310.632812 291.226562 C 314.570312 290.480469 317.066406 285.546875 312.347656 285.546875 Z M 543.617188 329.355469 L 542.195312 330.789062 L 513.074219 293.019531 L 434.636719 293.019531 C 434.515625 294.5 435.546875 295.867188 437.886719 296.21875 C 438.671875 296.332031 439.648438 296.445312 440.757812 296.550781 C 439.933594 298.207031 440.539062 299.945312 442.949219 300.21875 C 443.992188 300.339844 445.5625 300.507812 447.421875 300.707031 C 447.875 301.332031 448.5625 301.859375 449.527344 302.148438 C 453.773438 303.429688 461.902344 305.226562 465.03125 305.90625 C 465.867188 306.089844 466.710938 306.210938 467.570312 306.28125 C 467.570312 306.28125 483.90625 307.644531 486.355469 307.769531 L 486.40625 307.773438 C 486.96875 307.800781 487.539062 307.8125 488.109375 307.824219 L 522.898438 370.742188 C 528.804688 380.445312 541.460938 383.523438 551.167969 377.621094 C 552.832031 376.609375 559.8125 369.464844 566.917969 361.988281 Z M 736.242188 474.300781 C 736.242188 474.285156 736.25 474.265625 736.25 474.25 C 736.203125 473.09375 735.921875 470.03125 735.539062 466.207031 L 735.539062 466.203125 C 734.53125 456.128906 732.824219 440.746094 732.824219 440.738281 L 725.925781 379.03125 L 697.625 384.6875 C 697.882812 390.085938 698.210938 395.757812 698.527344 401.191406 C 703.277344 418.160156 708.867188 438.078125 710.605469 444.257812 C 710.28125 444.710938 709.996094 445.164062 709.757812 445.605469 C 706.59375 451.4375 706.078125 455.289062 707.109375 464.011719 C 706.820312 463.886719 706.515625 463.800781 706.195312 463.757812 C 704.097656 463.503906 702.273438 465.183594 702.359375 467.292969 L 702.808594 478.292969 C 702.847656 479.320312 703.34375 480.269531 704.164062 480.886719 L 712.863281 487.460938 C 712.863281 487.460938 712.863281 487.457031 712.863281 487.457031 L 715.125 489.167969 C 716.34375 490.089844 718.027344 490.089844 719.25 489.167969 L 734.90625 477.359375 C 735.800781 476.683594 736.308594 475.613281 736.261719 474.492188 Z M 605.222656 708.339844 C 605.222656 708.339844 605.226562 708.34375 605.226562 708.347656 C 605.1875 701.109375 606.199219 691.40625 607.027344 684.742188 L 579.28125 684.742188 C 578.664062 692.484375 577.53125 697.710938 575.804688 702.066406 C 585.28125 714.566406 598.042969 712.003906 605.222656 708.339844 Z M 669.085938 207.636719 C 667.292969 207.484375 666.011719 211.367188 665.179688 215.25 C 664.8125 215.03125 664.390625 214.894531 663.925781 214.886719 C 663.925781 214.886719 662.125 200.753906 665.597656 186.386719 C 662.542969 189.40625 651.371094 190.398438 643.292969 188.40625 C 633.425781 185.964844 627.695312 182.527344 621.195312 183.304688 C 617.148438 195.863281 617.011719 207.96875 617.011719 207.96875 L 617.300781 224.84375 C 617.429688 232.480469 621.21875 239.371094 627.027344 243.566406 L 626.886719 258.992188 C 627.59375 269.132812 636.917969 276.765625 647.714844 276.035156 C 658.507812 275.304688 665.800781 266.332031 665.09375 256.1875 L 662.992188 228.347656 L 664.242188 224.554688 C 664.773438 225.855469 666.027344 226.671875 667.386719 226.328125 C 671.449219 225.296875 674.339844 221.980469 674.691406 217.832031 C 675.148438 212.503906 672.636719 207.9375 669.085938 207.636719 Z M 251.160156 227.617188 C 246.128906 227.617188 242.03125 222.648438 242.03125 216.539062 C 242.03125 215.238281 242.226562 213.996094 242.570312 212.839844 C 241.519531 212.304688 240.507812 212.324219 239.449219 212.902344 C 239.777344 214.042969 239.964844 215.265625 239.964844 216.539062 C 239.964844 222.648438 235.871094 227.617188 230.839844 227.617188 C 225.808594 227.617188 221.714844 222.648438 221.714844 216.539062 C 221.714844 210.433594 225.808594 205.460938 230.839844 205.460938 C 234.328125 205.460938 237.363281 207.855469 238.898438 211.355469 C 240.289062 210.671875 241.726562 210.652344 243.121094 211.296875 C 244.664062 207.824219 247.6875 205.460938 251.15625 205.460938 C 252.082031 205.460938 252.976562 205.632812 253.816406 205.945312 C 253.839844 202.949219 253.308594 200.046875 252.320312 197.34375 C 251.410156 197.273438 250.5 197.183594 249.585938 197.050781 C 241.0625 195.84375 227.585938 191.371094 218.609375 185.953125 C 213.226562 194.855469 220.558594 212.757812 208.890625 216.554688 C 209.242188 212.410156 208.753906 207.496094 204.742188 206.507812 C 200.191406 205.394531 197.390625 208.734375 196.132812 213.777344 C 195.152344 217.703125 197.640625 221.875 202.367188 224.429688 C 203.984375 225.300781 205.890625 225.03125 206.996094 223.996094 L 193.066406 258.113281 C 200.601562 260.660156 207.09375 265.433594 211.601562 271.652344 C 212.03125 271.917969 212.460938 272.191406 212.875 272.5 C 213.105469 272.671875 213.378906 272.886719 213.601562 273.066406 L 217.316406 276.117188 L 227.0625 251.523438 C 229.449219 251.914062 231.941406 251.902344 234.453125 251.378906 C 243.074219 249.578125 249.25 242.492188 250.335938 234.234375 L 251.191406 227.613281 C 251.183594 227.617188 251.171875 227.617188 251.160156 227.617188 Z M 251.160156 207.0625 C 247.011719 207.0625 243.636719 211.3125 243.636719 216.539062 C 243.636719 221.765625 247.011719 226.015625 251.160156 226.015625 C 251.242188 226.015625 251.324219 226.003906 251.402344 226 L 253.621094 208.886719 C 253.675781 208.472656 253.710938 208.0625 253.742188 207.648438 C 252.9375 207.277344 252.070312 207.0625 251.160156 207.0625 Z M 230.839844 207.0625 C 226.691406 207.0625 223.320312 211.3125 223.320312 216.539062 C 223.320312 221.765625 226.691406 226.015625 230.839844 226.015625 C 234.992188 226.015625 238.363281 221.765625 238.363281 216.539062 C 238.363281 211.3125 234.992188 207.0625 230.839844 207.0625 Z M 230.839844 207.0625 " fill-opacity="1" fill-rule="evenodd"/></g><path fill="#293237" d="M 125.769531 715.488281 L 82.210938 715.488281 C 81.78125 715.488281 81.425781 715.839844 81.425781 716.273438 C 81.425781 716.707031 81.78125 717.058594 82.210938 717.058594 L 125.769531 717.058594 C 126.203125 717.058594 126.554688 716.707031 126.554688 716.273438 C 126.554688 715.839844 126.203125 715.488281 125.769531 715.488281 Z M 125.769531 715.488281 " fill-opacity="1" fill-rule="nonzero"/><path fill="#293237" d="M 291.953125 304.160156 L 298.066406 307.125 C 298.175781 307.179688 298.296875 307.203125 298.410156 307.203125 C 298.703125 307.203125 298.980469 307.039062 299.117188 306.761719 C 299.304688 306.371094 299.144531 305.902344 298.753906 305.710938 L 292.640625 302.746094 C 292.25 302.554688 291.78125 302.71875 291.589844 303.109375 C 291.402344 303.5 291.5625 303.96875 291.953125 304.160156 Z M 291.953125 304.160156 " fill-opacity="1" fill-rule="nonzero"/><path fill="#293237" d="M 228.441406 715.488281 L 152.078125 715.488281 C 151.644531 715.488281 151.292969 715.839844 151.292969 716.273438 C 151.292969 716.707031 151.644531 717.058594 152.078125 717.058594 L 228.441406 717.058594 C 228.875 717.058594 229.226562 716.707031 229.226562 716.273438 C 229.226562 715.839844 228.875 715.488281 228.441406 715.488281 Z M 228.441406 715.488281 " fill-opacity="1" fill-rule="nonzero"/><path fill="#293237" d="M 99.910156 416.578125 L 101.460938 498.609375 C 101.628906 509.9375 99.742188 521.203125 95.84375 531.839844 C 79.546875 576.285156 82.613281 647.824219 82.613281 678.851562 L 114.054688 678.851562 L 148.230469 531.203125 L 152.332031 503.183594 C 152.347656 503.355469 152.359375 503.523438 152.375 503.691406 L 163.5625 418.980469 C 163.589844 418.769531 163.691406 418.574219 163.847656 418.425781 L 177.703125 405.265625 C 178.078125 404.90625 178.667969 404.921875 179.027344 405.296875 C 179.386719 405.671875 179.371094 406.265625 178.992188 406.621094 L 165.375 419.554688 L 152.851562 514.417969 C 152.761719 520.34375 152.089844 526.179688 150.8125 531.835938 C 140.796875 576.28125 150.480469 647.820312 154.863281 678.847656 L 186.304688 678.847656 L 199.851562 531.199219 L 196.683594 402.921875 L 196.683594 359.765625 C 196.292969 359.902344 195.894531 360.019531 195.480469 360.089844 C 174.792969 363.699219 152.601562 360.417969 135.910156 354.46875 L 130.988281 355.0625 C 130.820312 354.910156 130.679688 354.746094 130.511719 354.59375 C 120.503906 364.253906 99.910156 387.636719 99.910156 416.578125 Z M 99.910156 416.578125 " fill-opacity="1" fill-rule="nonzero"/><path fill="#293237" d="M 204.515625 309.042969 L 187.167969 279.277344 C 186.949219 278.902344 186.46875 278.773438 186.09375 278.996094 C 185.71875 279.214844 185.59375 279.691406 185.8125 280.070312 L 203.15625 309.832031 C 203.304688 310.082031 203.566406 310.222656 203.835938 310.222656 C 203.972656 310.222656 204.109375 310.191406 204.230469 310.117188 C 204.605469 309.898438 204.734375 309.417969 204.515625 309.042969 Z M 204.515625 309.042969 " fill-opacity="1" fill-rule="nonzero"/><path fill="#293237" d="M 710.613281 445.074219 C 710.6875 445.074219 710.769531 445.0625 710.84375 445.039062 L 714 444.078125 C 714.414062 443.949219 714.648438 443.511719 714.523438 443.09375 C 714.394531 442.683594 713.964844 442.449219 713.539062 442.574219 L 710.382812 443.539062 C 709.96875 443.664062 709.734375 444.101562 709.859375 444.519531 C 709.964844 444.855469 710.277344 445.074219 710.613281 445.074219 Z M 710.613281 445.074219 " fill-opacity="1" fill-rule="nonzero"/><path fill="#293237" d="M 698.195312 384.34375 C 698.207031 384.34375 698.21875 384.34375 698.226562 384.34375 C 698.660156 384.324219 698.996094 383.960938 698.980469 383.527344 L 697.78125 356.269531 L 706.003906 296.804688 C 706.0625 296.378906 705.761719 295.980469 705.332031 295.921875 C 704.90625 295.871094 704.507812 296.164062 704.449219 296.59375 L 696.21875 356.195312 L 697.410156 383.597656 C 697.425781 384.015625 697.777344 384.34375 698.195312 384.34375 Z M 698.195312 384.34375 " fill-opacity="1" fill-rule="nonzero"/><path fill="#293237" d="M 621.195312 183.304688 C 627.695312 182.527344 633.425781 185.964844 643.292969 188.402344 C 651.371094 190.398438 662.542969 189.402344 665.597656 186.382812 C 662.125 200.753906 663.925781 214.886719 663.925781 214.886719 L 663.925781 214.882812 C 664.390625 214.890625 664.8125 215.03125 665.179688 215.246094 C 666.011719 211.367188 667.292969 207.484375 669.085938 207.636719 C 672.636719 207.9375 675.148438 212.5 674.695312 217.832031 C 674.34375 221.976562 671.449219 225.296875 667.390625 226.324219 C 666.03125 226.667969 664.773438 225.855469 664.242188 224.550781 L 662.996094 228.347656 L 663.054688 229.128906 C 667.210938 228.402344 683.570312 224.570312 681.714844 209.714844 C 681.714844 209.714844 694.597656 194.933594 681.8125 183.421875 C 681.957031 170.0625 674.746094 163.574219 661.316406 162.925781 C 661.316406 162.925781 630.957031 160.34375 624.207031 159.933594 C 614.589844 159.335938 614.199219 167.652344 617.050781 178.902344 C 617.214844 179.546875 617.460938 180.101562 617.742188 180.617188 C 616.019531 184.027344 614.894531 187.808594 614.5625 191.847656 C 614.128906 197.113281 615.0625 202.171875 617.0625 206.683594 C 617.210938 203.261719 617.929688 193.433594 621.195312 183.304688 Z M 621.195312 183.304688 " fill-opacity="1" fill-rule="nonzero"/><path fill="#293237" d="M 587.347656 349.203125 C 587.371094 349.203125 587.394531 349.203125 587.421875 349.199219 C 587.851562 349.160156 588.171875 348.777344 588.132812 348.34375 L 583.367188 297.292969 C 583.328125 296.863281 582.972656 296.558594 582.511719 296.585938 C 582.082031 296.625 581.761719 297.011719 581.804688 297.441406 L 586.566406 348.492188 C 586.605469 348.898438 586.945312 349.203125 587.347656 349.203125 Z M 587.347656 349.203125 " fill-opacity="1" fill-rule="nonzero"/><path fill="#293237" d="M 588.246094 442.386719 C 595.316406 442.386719 598.917969 436.496094 600.621094 432.140625 C 597.535156 431.738281 594.46875 431.308594 591.449219 430.820312 C 590.363281 430.644531 589.386719 430.191406 588.566406 429.558594 L 588.09375 442.421875 C 588.148438 442.410156 588.195312 442.386719 588.246094 442.386719 Z M 588.246094 442.386719 " fill-opacity="1" fill-rule="nonzero"/><path fill="#293237" d="M 293.226562 299.007812 L 299.71875 302.929688 C 299.847656 303.007812 299.988281 303.042969 300.128906 303.042969 C 300.390625 303.042969 300.652344 302.910156 300.800781 302.664062 C 301.023438 302.292969 300.90625 301.8125 300.535156 301.585938 L 294.039062 297.664062 C 293.671875 297.441406 293.1875 297.558594 292.960938 297.929688 C 292.738281 298.300781 292.855469 298.78125 293.226562 299.007812 Z M 293.226562 299.007812 " fill-opacity="1" fill-rule="nonzero"/><g clip-path="url(#c039d6f3fc)"><path fill="#293237" d="M 530.976562 734.835938 C 530.753906 736.519531 532.078125 738.019531 533.78125 738.019531 L 604.894531 738.019531 C 606.371094 738.019531 607.597656 736.886719 607.703125 735.414062 C 607.792969 734.210938 607.882812 732.632812 607.921875 730.804688 L 549.457031 730.804688 L 544.585938 723.203125 C 542.878906 724.027344 541.246094 724.78125 539.734375 725.4375 C 533.085938 728.316406 531.40625 731.636719 530.976562 734.835938 Z M 530.976562 734.835938 " fill-opacity="1" fill-rule="nonzero"/></g><path fill="#293237" d="M 575.804688 702.066406 C 570.277344 708.964844 555.804688 717.753906 544.585938 723.203125 L 549.457031 730.804688 L 607.921875 730.804688 C 608.066406 724.792969 607.71875 716.011719 605.222656 708.339844 C 598.042969 712.003906 585.28125 714.566406 575.804688 702.066406 Z M 575.804688 702.066406 " fill-opacity="1" fill-rule="nonzero"/><path fill="#293237" d="M 695.820312 620.621094 C 699.175781 595.460938 694.207031 558.484375 694.207031 558.484375 L 696.449219 444.257812 C 688.207031 444.25 684.132812 437.449219 682.277344 432.609375 C 682.914062 432.53125 683.542969 432.441406 684.175781 432.359375 C 685.914062 436.691406 689.519531 442.390625 696.46875 442.390625 C 696.472656 442.390625 696.480469 442.394531 696.484375 442.394531 L 696.730469 429.871094 C 696.003906 430.351562 695.179688 430.710938 694.273438 430.863281 C 665.523438 435.746094 632.546875 436.128906 602.269531 432.355469 C 602.351562 432.367188 602.4375 432.375 602.519531 432.386719 C 600.703125 437.242188 596.625 444.261719 588.246094 444.261719 C 588.167969 444.261719 588.097656 444.234375 588.027344 444.214844 L 583.871094 557.261719 L 578.4375 684.742188 L 610.21875 684.742188 C 617.136719 661.796875 633.199219 605.207031 625.359375 564.554688 L 642.496094 448.488281 L 632.296875 447.84375 C 631.78125 447.808594 631.390625 447.367188 631.421875 446.851562 C 631.453125 446.335938 631.886719 445.914062 632.414062 445.972656 L 646.859375 446.886719 C 647.375 446.917969 647.765625 447.363281 647.734375 447.878906 C 647.707031 448.367188 647.304688 448.734375 646.828125 448.75 L 654.039062 684.738281 L 685.757812 684.738281 C 688.414062 668.941406 693.417969 638.621094 695.820312 620.621094 Z M 695.820312 620.621094 " fill-opacity="1" fill-rule="nonzero"/><path fill="#293237" d="M 723.933594 456.753906 C 723.523438 456.726562 723.121094 457.035156 723.082031 457.46875 L 722.207031 467.621094 L 716.527344 486.699219 C 716.398438 487.132812 716.0625 487.476562 715.628906 487.613281 C 715.207031 487.746094 714.78125 487.671875 714.441406 487.410156 C 713.167969 486.410156 712.433594 484.769531 712.257812 482.527344 C 711.773438 476.296875 712.085938 468.890625 712.09375 468.816406 C 712.105469 468.496094 711.917969 468.199219 711.625 468.066406 C 711.523438 468.019531 709.148438 466.917969 708.148438 463.511719 C 708.027344 463.097656 707.597656 462.855469 707.175781 462.980469 C 706.757812 463.101562 706.519531 463.535156 706.644531 463.953125 C 707.574219 467.140625 709.574219 468.675781 710.503906 469.242188 C 710.441406 471.011719 710.273438 477.253906 710.695312 482.648438 C 710.90625 485.347656 711.839844 487.367188 713.476562 488.644531 C 713.980469 489.039062 714.597656 489.246094 715.226562 489.246094 C 715.519531 489.246094 715.816406 489.203125 716.105469 489.109375 C 717.035156 488.8125 717.757812 488.078125 718.035156 487.148438 L 723.738281 467.992188 C 723.753906 467.941406 723.761719 467.890625 723.769531 467.835938 L 724.652344 457.601562 C 724.683594 457.171875 724.367188 456.789062 723.933594 456.753906 Z M 723.933594 456.753906 " fill-opacity="1" fill-rule="nonzero"/><g clip-path="url(#8e6fbfb0d2)"><path fill="#293237" d="M 699.507812 719.582031 C 699.507812 719.582031 699.511719 719.582031 699.515625 719.582031 C 699.347656 719.429688 699.171875 719.277344 699.003906 719.125 C 697.585938 717.847656 696.132812 716.582031 694.695312 715.292969 C 694.359375 714.992188 694.027344 714.6875 693.695312 714.382812 C 693.34375 714.058594 692.992188 713.730469 692.640625 713.398438 C 692.289062 713.0625 691.941406 712.722656 691.59375 712.378906 C 691.277344 712.066406 690.964844 711.75 690.660156 711.429688 C 690.304688 711.0625 689.964844 710.683594 689.625 710.304688 C 689.34375 709.992188 689.0625 709.679688 688.789062 709.359375 C 688.445312 708.945312 688.121094 708.515625 687.792969 708.089844 C 687.554688 707.777344 687.3125 707.472656 687.089844 707.15625 C 686.742188 706.664062 686.429688 706.148438 686.113281 705.632812 C 685.941406 705.351562 685.753906 705.082031 685.59375 704.792969 C 685.140625 703.984375 684.730469 703.152344 684.367188 702.277344 C 684.363281 702.265625 684.355469 702.253906 684.351562 702.242188 C 684.203125 701.882812 684.082031 701.519531 683.949219 701.15625 C 682.199219 700.574219 680.445312 700.34375 678.699219 700.433594 C 677.820312 700.480469 676.9375 700.605469 676.0625 700.8125 C 671.703125 701.832031 667.410156 704.765625 663.3125 709.140625 C 660.824219 711.796875 658.507812 712.492188 656.542969 712.277344 C 655.929688 712.207031 655.351562 712.058594 654.816406 711.84375 C 654.78125 712.566406 654.75 713.308594 654.71875 714.066406 C 654.707031 714.347656 654.695312 714.640625 654.683594 714.925781 C 654.667969 715.351562 654.648438 715.78125 654.632812 716.21875 C 654.617188 716.6875 654.597656 717.164062 654.582031 717.644531 C 654.574219 717.921875 654.5625 718.199219 654.554688 718.480469 C 654.535156 719.050781 654.515625 719.636719 654.496094 720.230469 C 654.492188 720.398438 654.488281 720.570312 654.480469 720.738281 C 654.359375 724.941406 654.269531 729.660156 654.246094 735.175781 C 654.238281 736.738281 655.503906 738.015625 657.066406 738.015625 L 706.582031 738.015625 C 708.304688 738.015625 709.65625 736.476562 709.378906 734.777344 C 708.328125 728.371094 704.207031 723.863281 699.507812 719.582031 Z M 699.507812 719.582031 " fill-opacity="1" fill-rule="nonzero"/></g><path fill="#293237" d="M 157.546875 302.253906 C 157.183594 302.488281 157.082031 302.976562 157.320312 303.339844 L 173.855469 328.71875 C 174.007812 328.949219 174.257812 329.074219 174.515625 329.074219 C 174.660156 329.074219 174.808594 329.035156 174.941406 328.949219 C 175.304688 328.714844 175.40625 328.226562 175.171875 327.863281 L 158.632812 302.484375 C 158.398438 302.117188 157.910156 302.019531 157.546875 302.253906 Z M 157.546875 302.253906 " fill-opacity="1" fill-rule="nonzero"/><path fill="#293237" d="M 377.230469 410.332031 L 338.382812 410.332031 C 339.929688 407.445312 340.808594 404.148438 340.808594 400.644531 C 340.808594 389.285156 331.597656 380.078125 320.234375 380.078125 C 308.867188 380.078125 299.65625 389.285156 299.65625 400.644531 C 299.65625 404.148438 300.539062 407.445312 302.085938 410.332031 L 264.816406 410.332031 C 260.34375 410.332031 256.71875 413.957031 256.71875 418.425781 L 256.71875 530.789062 C 256.71875 535.257812 260.34375 538.882812 264.816406 538.882812 L 377.230469 538.882812 C 381.703125 538.882812 385.328125 535.257812 385.328125 530.789062 L 385.328125 418.425781 C 385.328125 413.957031 381.703125 410.332031 377.230469 410.332031 Z M 377.230469 410.332031 " fill-opacity="1" fill-rule="nonzero"/><path fill="#293237" d="M 261.769531 255.527344 C 258.730469 222.679688 265.71875 217.398438 267.082031 194.863281 C 268.445312 172.328125 245.179688 152.464844 214.417969 159.113281 C 189.289062 163.683594 174.734375 162.902344 169.714844 191.59375 C 164.691406 220.285156 170.851562 223.941406 146.09375 246.417969 C 121.453125 268.78125 96.910156 323.253906 130.511719 354.597656 C 131.242188 353.890625 131.921875 353.253906 132.53125 352.695312 C 130.453125 350.878906 129.4375 348.042969 130.089844 345.210938 L 143.777344 285.890625 C 147.417969 268.507812 162.753906 256.054688 180.519531 256.054688 C 184.976562 256.054688 189.273438 256.816406 193.277344 258.199219 C 193.207031 258.171875 193.140625 258.140625 193.066406 258.117188 L 206.996094 224 C 205.890625 225.035156 203.984375 225.304688 202.367188 224.429688 C 197.640625 221.878906 195.152344 217.703125 196.132812 213.78125 C 197.390625 208.738281 200.191406 205.398438 204.742188 206.511719 C 208.753906 207.496094 209.242188 212.414062 208.890625 216.558594 C 220.558594 212.761719 213.230469 194.859375 218.609375 185.957031 C 227.589844 191.371094 241.066406 195.847656 249.585938 197.054688 C 250.5 197.183594 251.410156 197.273438 252.320312 197.347656 C 253.628906 200.921875 254.140625 204.851562 253.617188 208.886719 L 250.335938 234.234375 C 249.25 242.496094 243.074219 249.585938 234.453125 251.382812 C 231.941406 251.90625 229.449219 251.917969 227.0625 251.523438 L 217.316406 276.121094 L 247.183594 299.328125 L 255.074219 294.507812 C 256.605469 282.378906 263.191406 270.871094 261.769531 255.527344 Z M 261.769531 255.527344 " fill-opacity="1" fill-rule="nonzero"/><path fill="#293237" d="M 539.710938 284.976562 L 539.710938 173.328125 C 539.710938 168.886719 536.109375 165.285156 531.664062 165.285156 L 496.917969 165.285156 C 498.429688 168.128906 499.296875 171.367188 499.296875 174.8125 C 499.296875 186.046875 490.1875 195.152344 478.949219 195.152344 C 467.710938 195.152344 458.601562 186.046875 458.601562 174.8125 C 458.601562 171.371094 459.464844 168.128906 460.980469 165.285156 L 419.960938 165.285156 C 415.515625 165.285156 411.914062 168.882812 411.914062 173.328125 L 411.914062 210.390625 C 414.84375 209.230469 418.09375 208.714844 421.511719 209.085938 C 431.382812 210.15625 439.160156 218.5 439.511719 228.417969 C 439.917969 239.902344 430.726562 249.335938 419.328125 249.335938 C 416.710938 249.335938 414.210938 248.820312 411.914062 247.914062 L 411.914062 284.972656 C 411.914062 289.414062 415.515625 293.015625 419.960938 293.015625 L 531.664062 293.015625 C 536.109375 293.015625 539.710938 289.417969 539.710938 284.976562 Z M 539.710938 284.976562 " fill-opacity="1" fill-rule="nonzero"/><path fill="#293237" d="M 499.679688 307.191406 L 489.613281 307.191406 C 489.179688 307.191406 488.828125 307.542969 488.828125 307.976562 C 488.828125 308.410156 489.179688 308.761719 489.613281 308.761719 L 499.679688 308.761719 C 500.113281 308.761719 500.464844 308.410156 500.464844 307.976562 C 500.464844 307.542969 500.113281 307.191406 499.679688 307.191406 Z M 499.679688 307.191406 " fill-opacity="1" fill-rule="nonzero"/><path fill="#e0e0e0" d="M 392.101562 285.644531 C 388.632812 285.644531 385.371094 286.515625 382.511719 288.046875 L 382.511719 251.210938 C 382.511719 246.792969 378.929688 243.207031 374.507812 243.207031 L 302.855469 243.207031 C 301.710938 245.203125 299.179688 245.007812 298.230469 243.207031 L 296.925781 243.207031 C 295.785156 245.914062 292.433594 245.695312 291.480469 243.207031 L 290.828125 243.207031 C 289.964844 246.246094 286.070312 246.273438 285.089844 243.207031 L 283.164062 243.207031 C 282.414062 245.738281 278.886719 246.203125 277.472656 243.207031 L 263.351562 243.207031 C 258.929688 243.207031 255.34375 246.792969 255.34375 251.210938 L 255.34375 293.808594 L 259.5 291.042969 C 259.695312 290.914062 259.894531 290.804688 260.09375 290.6875 C 261.402344 289.625 262.949219 288.824219 264.644531 288.398438 C 273.714844 286.113281 284.351562 285.664062 289.109375 285.582031 L 289.09375 285.558594 C 289.695312 285.5625 290.273438 285.566406 290.832031 285.566406 C 291.339844 285.566406 291.632812 285.570312 291.632812 285.570312 C 307.460938 285.636719 307.300781 285.542969 312.351562 285.542969 C 317.070312 285.542969 314.574219 290.476562 310.640625 291.222656 C 307.226562 291.867188 299.695312 292.769531 296.089844 293.179688 L 299.347656 296.121094 C 300.875 297.496094 301.367188 299.683594 300.582031 301.582031 L 296.148438 312.277344 C 295.761719 313.21875 294.894531 313.875 293.886719 313.992188 L 288.457031 314.636719 C 287.648438 314.730469 286.835938 314.5 286.199219 313.996094 L 283.039062 311.503906 C 278.59375 311.574219 274.105469 311.195312 270.617188 310.75 L 255.347656 323.257812 L 255.347656 362.3125 C 255.347656 366.730469 258.933594 370.316406 263.355469 370.316406 L 298.746094 370.316406 C 297.796875 367.949219 297.261719 365.375 297.261719 362.667969 C 297.261719 351.3125 306.472656 342.101562 317.835938 342.101562 C 329.203125 342.101562 338.414062 351.3125 338.414062 362.667969 C 338.414062 365.375 337.878906 367.949219 336.925781 370.316406 L 374.511719 370.316406 C 378.933594 370.316406 382.519531 366.734375 382.519531 362.3125 L 382.519531 323.914062 C 385.378906 325.445312 388.640625 326.316406 392.105469 326.316406 C 403.34375 326.316406 412.453125 317.210938 412.453125 305.976562 C 412.445312 294.75 403.335938 285.644531 392.101562 285.644531 Z M 392.101562 285.644531 " fill-opacity="1" fill-rule="nonzero"/><path fill="#5fa9e0" d="M 250.949219 205.234375 C 247.488281 205.234375 244.496094 207.699219 243.011719 211.296875 C 241.367188 210.308594 239.753906 210.820312 238.75 211.488281 C 237.257812 207.90625 234.273438 205.453125 230.820312 205.453125 C 225.886719 205.453125 221.882812 210.464844 221.882812 216.640625 C 221.882812 222.816406 225.886719 227.824219 230.820312 227.824219 C 235.757812 227.824219 239.757812 222.816406 239.757812 216.640625 C 239.757812 215.382812 239.585938 214.175781 239.277344 213.050781 C 239.503906 212.84375 240.914062 211.6875 242.480469 212.859375 C 242.183594 213.976562 242.011719 215.171875 242.011719 216.417969 C 242.011719 222.597656 246.011719 227.605469 250.949219 227.605469 C 255.882812 227.605469 259.886719 222.597656 259.886719 216.417969 C 259.886719 210.242188 255.882812 205.234375 250.949219 205.234375 Z M 230.820312 226.253906 C 226.761719 226.253906 223.457031 221.941406 223.457031 216.636719 C 223.457031 211.335938 226.761719 207.023438 230.820312 207.023438 C 234.882812 207.023438 238.1875 211.335938 238.1875 216.636719 C 238.1875 221.941406 234.882812 226.253906 230.820312 226.253906 Z M 250.949219 226.035156 C 246.886719 226.035156 243.582031 221.722656 243.582031 216.417969 C 243.582031 211.117188 246.886719 206.804688 250.949219 206.804688 C 255.011719 206.804688 258.3125 211.117188 258.3125 216.417969 C 258.3125 221.722656 255.007812 226.035156 250.949219 226.035156 Z M 250.949219 226.035156 " fill-opacity="1" fill-rule="nonzero"/></svg>