<svg xmlns="http://www.w3.org/2000/svg" xmlns:xlink="http://www.w3.org/1999/xlink" width="1080" zoomAndPan="magnify" viewBox="0 0 810 809.999993" height="1080" preserveAspectRatio="xMidYMid meet" version="1.0"><defs><g/><clipPath id="997618f20b"><path d="M 554.714844 352 L 660.207031 352 L 660.207031 457.742188 L 554.714844 457.742188 Z M 554.714844 352 " clip-rule="nonzero"/></clipPath></defs><path fill="#ffffff" d="M 648.199219 400.15625 L 633.554688 416.359375 C 633.097656 416.878906 632.5625 417.296875 631.949219 417.625 C 631.339844 417.949219 630.691406 418.15625 630.003906 418.246094 C 629.316406 418.335938 628.636719 418.300781 627.964844 418.148438 C 627.289062 417.992188 626.664062 417.722656 626.085938 417.34375 C 625.507812 416.960938 625.015625 416.492188 624.609375 415.933594 C 624.199219 415.375 623.902344 414.761719 623.714844 414.09375 C 623.53125 413.429688 623.464844 412.75 623.523438 412.0625 C 623.582031 411.371094 623.757812 410.714844 624.054688 410.085938 L 618.195312 404.792969 L 588.953125 437.15625 C 588.339844 437.835938 587.621094 438.375 586.792969 438.765625 C 585.964844 439.160156 585.09375 439.378906 584.179688 439.421875 C 584.058594 439.421875 583.941406 439.429688 583.824219 439.429688 C 583.15625 439.433594 582.5 439.335938 581.859375 439.148438 C 581.21875 438.957031 580.617188 438.683594 580.058594 438.316406 C 579.496094 437.953125 579 437.519531 578.566406 437.007812 C 578.132812 436.5 577.78125 435.941406 577.507812 435.328125 C 577.238281 434.71875 577.058594 434.082031 576.972656 433.417969 C 576.890625 432.753906 576.898438 432.09375 577.007812 431.433594 C 577.113281 430.773438 577.3125 430.144531 577.601562 429.539062 C 577.890625 428.9375 578.261719 428.390625 578.710938 427.894531 L 607.949219 395.527344 L 601.9375 390.09375 C 601.347656 390.445312 600.710938 390.679688 600.035156 390.804688 C 599.359375 390.925781 598.683594 390.925781 598.003906 390.804688 C 597.328125 390.6875 596.695312 390.453125 596.101562 390.101562 C 595.507812 389.753906 594.996094 389.3125 594.558594 388.78125 C 594.125 388.25 593.796875 387.65625 593.574219 387.003906 C 593.351562 386.355469 593.25 385.6875 593.269531 385 C 593.285156 384.3125 593.425781 383.648438 593.679688 383.011719 C 593.9375 382.371094 594.296875 381.800781 594.757812 381.289062 L 609.414062 365.078125 C 609.65625 364.808594 609.917969 364.5625 610.207031 364.34375 C 610.496094 364.121094 610.800781 363.929688 611.125 363.769531 C 611.449219 363.605469 611.785156 363.476562 612.132812 363.378906 C 612.480469 363.28125 612.835938 363.214844 613.195312 363.183594 C 613.558594 363.152344 613.917969 363.15625 614.277344 363.191406 C 614.640625 363.226562 614.992188 363.296875 615.339844 363.402344 C 615.6875 363.503906 616.019531 363.640625 616.34375 363.804688 C 616.664062 363.972656 616.96875 364.167969 617.253906 364.390625 C 617.535156 364.617188 617.796875 364.863281 618.035156 365.136719 C 618.273438 365.410156 618.484375 365.703125 618.664062 366.015625 C 618.847656 366.332031 619 366.65625 619.121094 367 C 619.238281 367.339844 619.328125 367.691406 619.382812 368.046875 C 619.4375 368.40625 619.457031 368.765625 619.441406 369.128906 C 619.429688 369.492188 619.382812 369.847656 619.300781 370.199219 C 619.21875 370.554688 619.105469 370.894531 618.960938 371.226562 C 618.8125 371.558594 618.636719 371.875 618.433594 372.171875 L 640.230469 391.875 C 641.222656 391.039062 642.363281 390.585938 643.65625 390.507812 C 644.226562 390.484375 644.789062 390.539062 645.339844 390.679688 C 645.890625 390.820312 646.414062 391.039062 646.902344 391.332031 C 647.390625 391.628906 647.824219 391.988281 648.207031 392.410156 C 648.585938 392.832031 648.898438 393.304688 649.144531 393.820312 C 649.386719 394.335938 649.550781 394.875 649.632812 395.4375 C 649.714844 396.003906 649.714844 396.566406 649.628906 397.128906 C 649.546875 397.695312 649.382812 398.234375 649.140625 398.75 C 648.894531 399.265625 648.582031 399.734375 648.199219 400.15625 Z M 580.511719 432.679688 C 580.554688 433.597656 580.917969 434.363281 581.601562 434.980469 C 582.285156 435.589844 583.082031 435.875 583.996094 435.832031 C 584.914062 435.789062 585.679688 435.425781 586.296875 434.742188 L 588.753906 432.011719 L 583.816406 427.566406 L 581.359375 430.285156 C 580.742188 430.964844 580.460938 431.765625 580.511719 432.679688 Z M 586.222656 424.898438 L 591.164062 429.34375 L 615.539062 402.390625 L 610.609375 397.933594 Z M 615.148438 367.320312 C 614.730469 366.945312 614.246094 366.757812 613.683594 366.757812 L 613.578125 366.757812 C 612.976562 366.789062 612.476562 367.027344 612.074219 367.476562 L 597.414062 383.691406 C 597.226562 383.90625 597.085938 384.148438 596.992188 384.417969 C 596.898438 384.691406 596.859375 384.96875 596.875 385.253906 C 596.890625 385.539062 596.960938 385.8125 597.085938 386.070312 C 597.207031 386.328125 597.375 386.550781 597.589844 386.746094 C 597.800781 386.9375 598.039062 387.082031 598.308594 387.179688 C 598.578125 387.277344 598.855469 387.320312 599.140625 387.304688 C 599.429688 387.292969 599.703125 387.230469 599.960938 387.109375 C 600.222656 386.988281 600.449219 386.824219 600.644531 386.617188 L 615.308594 370.394531 C 615.5 370.179688 615.644531 369.9375 615.738281 369.664062 C 615.835938 369.394531 615.875 369.113281 615.863281 368.824219 C 615.847656 368.535156 615.777344 368.261719 615.652344 368.003906 C 615.53125 367.742188 615.363281 367.515625 615.148438 367.320312 Z M 616.082031 374.882812 L 611.898438 379.511719 L 604.558594 387.632812 L 610.355469 392.867188 L 620.605469 402.125 L 626.246094 407.230469 L 637.769531 394.480469 Z M 645.382812 394.648438 C 644.964844 394.269531 644.476562 394.082031 643.910156 394.082031 L 643.835938 394.082031 C 643.222656 394.117188 642.710938 394.363281 642.296875 394.816406 L 633.78125 404.234375 L 627.652344 411.019531 C 627.457031 411.234375 627.308594 411.480469 627.214844 411.753906 C 627.117188 412.027344 627.074219 412.308594 627.089844 412.597656 C 627.105469 412.886719 627.171875 413.164062 627.296875 413.425781 C 627.421875 413.6875 627.59375 413.914062 627.808594 414.109375 C 628.023438 414.304688 628.265625 414.449219 628.539062 414.546875 C 628.8125 414.644531 629.09375 414.6875 629.386719 414.671875 C 629.675781 414.65625 629.949219 414.585938 630.210938 414.464844 C 630.476562 414.339844 630.703125 414.167969 630.898438 413.953125 L 645.542969 397.753906 C 645.738281 397.535156 645.882812 397.292969 645.980469 397.015625 C 646.078125 396.742188 646.121094 396.460938 646.105469 396.167969 C 646.089844 395.878906 646.019531 395.601562 645.894531 395.335938 C 645.769531 395.074219 645.601562 394.84375 645.382812 394.648438 Z M 645.382812 394.648438 " fill-opacity="1" fill-rule="nonzero"/><path fill="#ffffff" d="M 640.910156 368.082031 C 640.464844 368.082031 640.070312 367.9375 639.730469 367.65625 C 639.550781 367.5 639.40625 367.3125 639.300781 367.101562 C 639.195312 366.886719 639.136719 366.660156 639.117188 366.421875 C 639.101562 366.183594 639.132812 365.953125 639.207031 365.726562 C 639.285156 365.503906 639.402344 365.300781 639.558594 365.121094 C 639.714844 364.941406 639.898438 364.796875 640.113281 364.691406 C 640.324219 364.585938 640.550781 364.523438 640.789062 364.507812 C 641.027344 364.492188 641.257812 364.519531 641.484375 364.597656 C 641.710938 364.671875 641.914062 364.789062 642.09375 364.945312 C 642.273438 365.101562 642.414062 365.285156 642.523438 365.496094 C 642.628906 365.710938 642.691406 365.9375 642.707031 366.171875 C 642.722656 366.410156 642.695312 366.644531 642.621094 366.867188 C 642.546875 367.09375 642.429688 367.296875 642.273438 367.476562 C 641.910156 367.878906 641.453125 368.082031 640.910156 368.082031 Z M 640.910156 368.082031 " fill-opacity="1" fill-rule="nonzero"/><path fill="#ffffff" d="M 614.792969 356.140625 C 614.707031 356.144531 614.621094 356.140625 614.539062 356.125 C 614.386719 356.101562 614.242188 356.0625 614.097656 356.003906 C 613.957031 355.941406 613.824219 355.867188 613.703125 355.773438 C 613.582031 355.679688 613.472656 355.574219 613.378906 355.453125 C 613.285156 355.332031 613.207031 355.199219 613.144531 355.058594 C 613.085938 354.917969 613.042969 354.769531 613.019531 354.617188 C 612.996094 354.464844 612.992188 354.3125 613.007812 354.160156 C 613.027344 354.007812 613.0625 353.859375 613.117188 353.714844 C 613.167969 353.574219 613.242188 353.4375 613.332031 353.3125 C 613.417969 353.1875 613.523438 353.074219 613.640625 352.976562 C 613.757812 352.878906 613.886719 352.796875 614.027344 352.730469 C 614.164062 352.664062 614.308594 352.617188 614.460938 352.589844 C 614.613281 352.5625 614.761719 352.550781 614.917969 352.5625 C 615.070312 352.574219 615.21875 352.605469 615.363281 352.652344 C 615.511719 352.703125 615.648438 352.769531 615.777344 352.855469 C 615.90625 352.9375 616.019531 353.039062 616.121094 353.152344 C 616.226562 353.265625 616.3125 353.390625 616.382812 353.527344 C 616.453125 353.664062 616.503906 353.808594 616.539062 353.957031 C 616.574219 354.109375 616.585938 354.257812 616.582031 354.414062 C 616.574219 354.566406 616.550781 354.714844 616.507812 354.863281 C 616.464844 355.011719 616.402344 355.152344 616.320312 355.28125 C 616.242188 355.414062 616.144531 355.53125 616.035156 355.636719 C 615.925781 355.746094 615.800781 355.835938 615.667969 355.910156 C 615.535156 355.988281 615.394531 356.042969 615.246094 356.082031 C 615.097656 356.121094 614.945312 356.140625 614.792969 356.140625 Z M 614.792969 356.140625 " fill-opacity="1" fill-rule="nonzero"/><path fill="#ffffff" d="M 621.902344 357.679688 C 621.761719 357.683594 621.625 357.671875 621.488281 357.640625 C 621.351562 357.609375 621.21875 357.5625 621.09375 357.5 C 620.96875 357.441406 620.851562 357.363281 620.742188 357.273438 C 620.636719 357.183594 620.539062 357.085938 620.457031 356.972656 C 620.371094 356.859375 620.300781 356.738281 620.246094 356.609375 C 620.191406 356.480469 620.152344 356.347656 620.128906 356.210938 C 620.105469 356.070312 620.097656 355.933594 620.105469 355.792969 C 620.117188 355.652344 620.140625 355.515625 620.183594 355.382812 C 620.246094 355.167969 620.347656 354.972656 620.484375 354.796875 C 620.617188 354.621094 620.78125 354.476562 620.972656 354.359375 C 621.164062 354.242188 621.367188 354.167969 621.585938 354.125 C 621.804688 354.085938 622.023438 354.089844 622.242188 354.132812 C 622.460938 354.171875 622.664062 354.253906 622.855469 354.371094 C 623.042969 354.492188 623.203125 354.640625 623.335938 354.816406 C 623.46875 354.996094 623.566406 355.191406 623.628906 355.40625 C 623.6875 355.621094 623.707031 355.839844 623.6875 356.0625 C 623.664062 356.28125 623.605469 356.492188 623.503906 356.691406 C 623.40625 356.890625 623.273438 357.066406 623.109375 357.214844 C 622.941406 357.367188 622.757812 357.480469 622.550781 357.5625 C 622.339844 357.640625 622.125 357.679688 621.902344 357.679688 Z M 621.902344 357.679688 " fill-opacity="1" fill-rule="nonzero"/><path fill="#ffffff" d="M 628.710938 360.226562 C 628.449219 360.226562 628.199219 360.171875 627.957031 360.066406 C 627.742188 359.96875 627.554688 359.832031 627.394531 359.660156 C 627.230469 359.484375 627.109375 359.289062 627.027344 359.066406 C 626.941406 358.84375 626.90625 358.617188 626.914062 358.378906 C 626.921875 358.140625 626.976562 357.917969 627.074219 357.699219 C 627.171875 357.484375 627.308594 357.296875 627.484375 357.132812 C 627.65625 356.972656 627.855469 356.847656 628.078125 356.765625 C 628.300781 356.683594 628.53125 356.644531 628.769531 356.652344 C 629.003906 356.660156 629.230469 356.714844 629.449219 356.8125 C 629.664062 356.914062 629.855469 357.050781 630.015625 357.222656 C 630.179688 357.398438 630.300781 357.59375 630.382812 357.816406 C 630.464844 358.039062 630.503906 358.269531 630.496094 358.507812 C 630.488281 358.746094 630.433594 358.972656 630.335938 359.1875 C 630.191406 359.503906 629.96875 359.757812 629.675781 359.945312 C 629.382812 360.132812 629.0625 360.226562 628.710938 360.226562 Z M 628.710938 360.226562 " fill-opacity="1" fill-rule="nonzero"/><path fill="#ffffff" d="M 635.085938 363.71875 C 634.734375 363.722656 634.410156 363.625 634.117188 363.433594 C 633.996094 363.355469 633.886719 363.265625 633.789062 363.160156 C 633.691406 363.054688 633.605469 362.941406 633.535156 362.816406 C 633.460938 362.695312 633.40625 362.5625 633.367188 362.425781 C 633.328125 362.289062 633.304688 362.148438 633.296875 362.003906 C 633.289062 361.863281 633.300781 361.71875 633.328125 361.578125 C 633.355469 361.4375 633.398438 361.304688 633.457031 361.171875 C 633.519531 361.042969 633.59375 360.921875 633.679688 360.808594 C 633.769531 360.695312 633.871094 360.597656 633.984375 360.507812 C 634.09375 360.417969 634.21875 360.347656 634.347656 360.285156 C 634.476562 360.226562 634.613281 360.183594 634.753906 360.15625 C 634.894531 360.128906 635.035156 360.121094 635.179688 360.128906 C 635.324219 360.132812 635.464844 360.160156 635.601562 360.199219 C 635.738281 360.238281 635.867188 360.296875 635.992188 360.367188 C 636.117188 360.441406 636.230469 360.523438 636.332031 360.625 C 636.4375 360.722656 636.527344 360.832031 636.605469 360.953125 C 636.683594 361.074219 636.742188 361.203125 636.789062 361.339844 C 636.835938 361.472656 636.867188 361.613281 636.878906 361.753906 C 636.894531 361.898438 636.890625 362.039062 636.867188 362.179688 C 636.847656 362.324219 636.8125 362.460938 636.757812 362.59375 C 636.703125 362.726562 636.636719 362.851562 636.550781 362.96875 C 636.46875 363.085938 636.375 363.1875 636.265625 363.28125 C 636.15625 363.375 636.039062 363.457031 635.910156 363.519531 C 635.785156 363.585938 635.648438 363.636719 635.511719 363.667969 C 635.371094 363.703125 635.230469 363.71875 635.085938 363.71875 Z M 635.085938 363.71875 " fill-opacity="1" fill-rule="nonzero"/><path fill="#ffffff" d="M 658.253906 399.371094 C 658.171875 399.386719 658.085938 399.394531 658 399.390625 C 657.847656 399.390625 657.695312 399.375 657.542969 399.335938 C 657.394531 399.296875 657.25 399.242188 657.117188 399.167969 C 656.980469 399.089844 656.855469 399 656.746094 398.894531 C 656.632812 398.789062 656.535156 398.667969 656.453125 398.535156 C 656.375 398.40625 656.308594 398.265625 656.265625 398.117188 C 656.21875 397.96875 656.191406 397.816406 656.1875 397.664062 C 656.179688 397.507812 656.191406 397.355469 656.226562 397.203125 C 656.257812 397.054688 656.308594 396.910156 656.378906 396.769531 C 656.449219 396.632812 656.535156 396.507812 656.640625 396.390625 C 656.742188 396.273438 656.855469 396.171875 656.984375 396.085938 C 657.113281 396 657.253906 395.933594 657.398438 395.882812 C 657.542969 395.832031 657.695312 395.800781 657.847656 395.789062 C 658.003906 395.777344 658.15625 395.785156 658.308594 395.8125 C 658.460938 395.839844 658.609375 395.886719 658.746094 395.949219 C 658.886719 396.015625 659.019531 396.097656 659.136719 396.195312 C 659.257812 396.296875 659.363281 396.40625 659.453125 396.53125 C 659.542969 396.660156 659.617188 396.792969 659.671875 396.9375 C 659.726562 397.082031 659.761719 397.230469 659.78125 397.386719 C 659.796875 397.539062 659.796875 397.691406 659.773438 397.84375 C 659.75 398 659.710938 398.148438 659.648438 398.289062 C 659.589844 398.429688 659.511719 398.5625 659.417969 398.6875 C 659.324219 398.808594 659.214844 398.917969 659.09375 399.011719 C 658.96875 399.109375 658.839844 399.1875 658.695312 399.246094 C 658.554688 399.308594 658.40625 399.347656 658.253906 399.371094 Z M 658.253906 399.371094 " fill-opacity="1" fill-rule="nonzero"/><path fill="#ffffff" d="M 656.964844 392.207031 C 656.800781 392.253906 656.632812 392.277344 656.464844 392.277344 C 656.3125 392.277344 656.167969 392.257812 656.019531 392.21875 C 655.875 392.183594 655.738281 392.128906 655.605469 392.054688 C 655.476562 391.984375 655.355469 391.898438 655.246094 391.792969 C 655.136719 391.691406 655.042969 391.578125 654.960938 391.453125 C 654.878906 391.324219 654.816406 391.191406 654.769531 391.050781 C 654.722656 390.90625 654.695312 390.761719 654.683594 390.613281 C 654.671875 390.460938 654.683594 390.3125 654.707031 390.167969 C 654.734375 390.019531 654.78125 389.878906 654.84375 389.742188 C 654.90625 389.605469 654.984375 389.480469 655.078125 389.363281 C 655.171875 389.246094 655.28125 389.144531 655.398438 389.054688 C 655.519531 388.964844 655.648438 388.890625 655.789062 388.835938 C 655.925781 388.777344 656.070312 388.738281 656.21875 388.71875 C 656.367188 388.699219 656.515625 388.695312 656.664062 388.710938 C 656.8125 388.726562 656.957031 388.761719 657.097656 388.816406 C 657.238281 388.867188 657.367188 388.9375 657.492188 389.023438 C 657.613281 389.109375 657.722656 389.207031 657.820312 389.320312 C 657.921875 389.433594 658.003906 389.558594 658.070312 389.695312 C 658.136719 389.828125 658.183594 389.96875 658.214844 390.113281 C 658.246094 390.261719 658.261719 390.410156 658.253906 390.558594 C 658.25 390.707031 658.222656 390.855469 658.179688 390.996094 C 658.140625 391.140625 658.078125 391.277344 658.003906 391.40625 C 657.925781 391.535156 657.832031 391.652344 657.726562 391.757812 C 657.621094 391.863281 657.503906 391.953125 657.375 392.03125 C 657.246094 392.105469 657.109375 392.164062 656.964844 392.207031 Z M 656.964844 392.207031 " fill-opacity="1" fill-rule="nonzero"/><path fill="#ffffff" d="M 646.050781 373.25 C 645.503906 373.253906 645.058594 373.042969 644.707031 372.625 C 644.53125 372.417969 644.410156 372.183594 644.34375 371.921875 C 644.277344 371.660156 644.269531 371.394531 644.324219 371.128906 C 644.378906 370.863281 644.488281 370.625 644.652344 370.410156 C 644.816406 370.195312 645.019531 370.023438 645.261719 369.902344 C 645.503906 369.78125 645.757812 369.71875 646.027344 369.714844 C 646.300781 369.710938 646.558594 369.765625 646.804688 369.878906 C 647.050781 369.992188 647.257812 370.15625 647.429688 370.367188 C 647.597656 370.574219 647.714844 370.8125 647.777344 371.074219 C 647.839844 371.339844 647.839844 371.601562 647.78125 371.867188 C 647.722656 372.132812 647.609375 372.371094 647.441406 372.582031 C 647.273438 372.792969 647.066406 372.957031 646.824219 373.074219 C 646.578125 373.191406 646.320312 373.25 646.050781 373.25 Z M 646.050781 373.25 " fill-opacity="1" fill-rule="nonzero"/><path fill="#ffffff" d="M 654.652344 385.289062 C 654.421875 385.398438 654.175781 385.449219 653.921875 385.449219 C 653.703125 385.453125 653.496094 385.414062 653.292969 385.339844 C 653.089844 385.265625 652.90625 385.15625 652.742188 385.015625 C 652.582031 384.875 652.445312 384.707031 652.34375 384.519531 C 652.238281 384.328125 652.171875 384.128906 652.140625 383.914062 C 652.109375 383.699219 652.117188 383.488281 652.164062 383.277344 C 652.210938 383.066406 652.292969 382.871094 652.410156 382.6875 C 652.527344 382.507812 652.671875 382.351562 652.84375 382.222656 C 653.019531 382.09375 653.207031 382 653.414062 381.9375 C 653.621094 381.878906 653.835938 381.855469 654.050781 381.871094 C 654.265625 381.890625 654.472656 381.941406 654.667969 382.035156 C 654.863281 382.125 655.035156 382.246094 655.1875 382.398438 C 655.339844 382.554688 655.460938 382.726562 655.550781 382.925781 C 655.648438 383.140625 655.703125 383.367188 655.710938 383.605469 C 655.722656 383.84375 655.683594 384.074219 655.597656 384.296875 C 655.515625 384.519531 655.390625 384.714844 655.226562 384.886719 C 655.0625 385.058594 654.871094 385.195312 654.652344 385.289062 Z M 654.652344 385.289062 " fill-opacity="1" fill-rule="nonzero"/><path fill="#ffffff" d="M 651.394531 378.789062 C 651.097656 378.972656 650.773438 379.066406 650.425781 379.074219 C 649.777344 379.070312 649.273438 378.792969 648.921875 378.25 C 648.792969 378.050781 648.707031 377.835938 648.664062 377.601562 C 648.621094 377.367188 648.625 377.132812 648.675781 376.902344 C 648.722656 376.671875 648.816406 376.457031 648.949219 376.261719 C 649.085938 376.066406 649.253906 375.90625 649.453125 375.777344 C 649.652344 375.648438 649.867188 375.5625 650.101562 375.519531 C 650.335938 375.476562 650.566406 375.480469 650.800781 375.527344 C 651.03125 375.578125 651.246094 375.671875 651.441406 375.804688 C 651.636719 375.941406 651.796875 376.105469 651.925781 376.304688 C 652.054688 376.503906 652.140625 376.722656 652.183594 376.953125 C 652.226562 377.1875 652.222656 377.421875 652.175781 377.652344 C 652.125 377.882812 652.03125 378.097656 651.898438 378.292969 C 651.761719 378.488281 651.597656 378.652344 651.398438 378.78125 Z M 651.394531 378.789062 " fill-opacity="1" fill-rule="nonzero"/><g clip-path="url(#997618f20b)"><path fill="#ffffff" d="M 607.480469 352.039062 C 607.519531 352.039062 607.550781 352.058594 607.589844 352.058594 C 607.742188 352.070312 607.886719 352.101562 608.03125 352.148438 C 608.210938 352.210938 608.371094 352.296875 608.523438 352.410156 C 608.601562 352.457031 608.679688 352.503906 608.753906 352.558594 C 608.832031 352.65625 608.898438 352.761719 608.957031 352.871094 C 609.160156 353.15625 609.265625 353.476562 609.273438 353.828125 C 609.265625 354.179688 609.160156 354.5 608.957031 354.785156 C 608.898438 354.898438 608.832031 355.003906 608.753906 355.101562 C 608.679688 355.15625 608.601562 355.203125 608.523438 355.25 C 608.214844 355.488281 607.871094 355.613281 607.480469 355.621094 C 605.871094 355.621094 604.261719 355.699219 602.65625 355.859375 C 601.050781 356.015625 599.457031 356.253906 597.875 356.566406 C 596.292969 356.882812 594.730469 357.273438 593.1875 357.742188 C 591.644531 358.210938 590.128906 358.753906 588.636719 359.371094 C 587.148438 359.988281 585.691406 360.675781 584.269531 361.4375 C 582.847656 362.195312 581.464844 363.023438 580.125 363.921875 C 578.78125 364.816406 577.488281 365.777344 576.242188 366.800781 C 574.996094 367.824219 573.800781 368.902344 572.660156 370.042969 C 571.519531 371.183594 570.4375 372.378906 569.414062 373.625 C 568.394531 374.871094 567.433594 376.167969 566.535156 377.507812 C 565.640625 378.847656 564.8125 380.230469 564.050781 381.652344 C 563.292969 383.074219 562.601562 384.53125 561.984375 386.019531 C 561.367188 387.511719 560.828125 389.027344 560.359375 390.570312 C 559.890625 392.113281 559.5 393.675781 559.183594 395.257812 C 558.871094 396.839844 558.632812 398.433594 558.476562 400.039062 C 558.316406 401.644531 558.238281 403.253906 558.238281 404.867188 C 558.238281 406.480469 558.316406 408.085938 558.476562 409.691406 C 558.632812 411.296875 558.871094 412.890625 559.183594 414.472656 C 559.5 416.054688 559.890625 417.617188 560.359375 419.160156 C 560.828125 420.703125 561.367188 422.222656 561.984375 423.710938 C 562.605469 425.199219 563.292969 426.65625 564.050781 428.078125 C 564.8125 429.5 565.640625 430.882812 566.535156 432.222656 C 567.433594 433.566406 568.394531 434.859375 569.414062 436.105469 C 570.4375 437.351562 571.519531 438.546875 572.660156 439.6875 C 573.800781 440.828125 574.996094 441.910156 576.242188 442.933594 C 577.488281 443.957031 578.78125 444.914062 580.125 445.8125 C 581.464844 446.707031 582.847656 447.535156 584.269531 448.296875 C 585.691406 449.054688 587.148438 449.746094 588.636719 450.363281 C 590.128906 450.980469 591.644531 451.523438 593.1875 451.988281 C 594.730469 452.457031 596.292969 452.847656 597.875 453.164062 C 599.457031 453.480469 601.050781 453.714844 602.65625 453.875 C 604.261719 454.03125 605.871094 454.109375 607.480469 454.109375 C 609.09375 454.109375 610.703125 454.03125 612.308594 453.875 C 613.914062 453.714844 615.507812 453.480469 617.089844 453.164062 C 618.671875 452.847656 620.234375 452.457031 621.777344 451.988281 C 623.320312 451.523438 624.835938 450.980469 626.328125 450.363281 C 627.816406 449.746094 629.273438 449.054688 630.695312 448.296875 C 632.117188 447.535156 633.5 446.707031 634.839844 445.8125 C 636.183594 444.914062 637.476562 443.957031 638.722656 442.933594 C 639.96875 441.910156 641.164062 440.828125 642.304688 439.6875 C 643.445312 438.546875 644.527344 437.351562 645.546875 436.105469 C 646.570312 434.859375 647.53125 433.566406 648.425781 432.222656 C 649.324219 430.882812 650.152344 429.5 650.910156 428.078125 C 651.671875 426.65625 652.359375 425.199219 652.976562 423.710938 C 653.59375 422.222656 654.136719 420.703125 654.605469 419.160156 C 655.074219 417.617188 655.464844 416.054688 655.78125 414.472656 C 656.09375 412.890625 656.332031 411.296875 656.488281 409.691406 C 656.648438 408.085938 656.726562 406.480469 656.726562 404.867188 C 656.726562 404.4375 656.859375 404.058594 657.128906 403.726562 C 657.402344 403.398438 657.746094 403.191406 658.164062 403.105469 C 658.582031 403.023438 658.980469 403.082031 659.359375 403.28125 C 659.734375 403.484375 660.007812 403.78125 660.167969 404.175781 C 660.265625 404.394531 660.3125 404.625 660.316406 404.867188 C 660.316406 404.875 660.316406 404.886719 660.316406 404.898438 C 660.3125 406.628906 660.226562 408.355469 660.058594 410.078125 C 659.886719 411.796875 659.632812 413.507812 659.292969 415.203125 C 658.953125 416.898438 658.535156 418.574219 658.03125 420.230469 C 657.527344 421.886719 656.945312 423.511719 656.28125 425.109375 C 655.617188 426.707031 654.878906 428.269531 654.0625 429.792969 C 653.246094 431.320312 652.359375 432.800781 651.394531 434.238281 C 650.433594 435.675781 649.402344 437.0625 648.304688 438.402344 C 647.207031 439.738281 646.046875 441.015625 644.824219 442.238281 C 643.597656 443.460938 642.316406 444.621094 640.980469 445.71875 C 639.644531 446.816406 638.253906 447.84375 636.816406 448.804688 C 635.375 449.765625 633.894531 450.652344 632.367188 451.46875 C 630.84375 452.28125 629.28125 453.019531 627.679688 453.679688 C 626.082031 454.34375 624.457031 454.921875 622.800781 455.425781 C 621.144531 455.925781 619.46875 456.34375 617.773438 456.683594 C 616.074219 457.019531 614.367188 457.273438 612.644531 457.441406 C 610.921875 457.609375 609.195312 457.695312 607.46875 457.691406 C 605.738281 457.691406 604.011719 457.605469 602.289062 457.4375 C 600.570312 457.265625 598.859375 457.011719 597.164062 456.675781 C 595.464844 456.335938 593.789062 455.914062 592.136719 455.414062 C 590.480469 454.910156 588.851562 454.328125 587.253906 453.664062 C 585.65625 453.003906 584.097656 452.261719 582.570312 451.449219 C 581.046875 450.632812 579.5625 449.742188 578.125 448.78125 C 576.6875 447.820312 575.300781 446.789062 573.960938 445.691406 C 572.625 444.59375 571.347656 443.433594 570.125 442.210938 C 568.898438 440.988281 567.738281 439.707031 566.644531 438.367188 C 565.546875 437.03125 564.515625 435.644531 563.554688 434.203125 C 562.59375 432.765625 561.707031 431.285156 560.894531 429.757812 C 560.078125 428.230469 559.339844 426.671875 558.675781 425.070312 C 558.015625 423.472656 557.433594 421.847656 556.933594 420.191406 C 556.429688 418.535156 556.011719 416.859375 555.671875 415.164062 C 555.335938 413.464844 555.082031 411.757812 554.914062 410.035156 C 554.746094 408.3125 554.660156 406.589844 554.660156 404.859375 C 554.660156 403.128906 554.746094 401.402344 554.914062 399.679688 C 555.085938 397.960938 555.339844 396.25 555.675781 394.554688 C 556.015625 392.855469 556.433594 391.179688 556.9375 389.527344 C 557.4375 387.871094 558.019531 386.242188 558.683594 384.644531 C 559.34375 383.046875 560.085938 381.484375 560.898438 379.960938 C 561.714844 378.433594 562.605469 376.953125 563.566406 375.515625 C 564.527344 374.074219 565.554688 372.6875 566.652344 371.351562 C 567.75 370.015625 568.910156 368.734375 570.132812 367.511719 C 571.355469 366.289062 572.636719 365.128906 573.972656 364.03125 C 575.3125 362.933594 576.699219 361.902344 578.136719 360.941406 C 579.578125 359.980469 581.058594 359.09375 582.582031 358.277344 C 584.109375 357.460938 585.671875 356.722656 587.269531 356.0625 C 588.867188 355.398438 590.496094 354.816406 592.148438 354.3125 C 593.804688 353.8125 595.480469 353.390625 597.179688 353.054688 C 598.875 352.714844 600.582031 352.464844 602.304688 352.292969 C 604.027344 352.125 605.753906 352.039062 607.480469 352.039062 Z M 607.480469 352.039062 " fill-opacity="1" fill-rule="nonzero"/></g><g fill="#f7f8fa" fill-opacity="1"><g transform="translate(140.664502, 459.374997)"><g><path d="M 6.625 0 L 73.84375 0 C 73.84375 -0.21875 73.894531 -0.382812 74 -0.5 L 74 -0.65625 C 74.21875 -0.882812 74.21875 -1 74 -1 C 74.113281 -1.21875 74.171875 -1.546875 74.171875 -1.984375 C 74.503906 -2.984375 74.671875 -3.8125 74.671875 -4.46875 C 74.773438 -4.800781 74.828125 -5.1875 74.828125 -5.625 C 74.828125 -5.84375 74.882812 -6.066406 75 -6.296875 L 75 -6.78125 L 74.5 -6.78125 C 74.28125 -6.894531 73.835938 -6.953125 73.171875 -6.953125 L 72.84375 -6.953125 C 71.632812 -6.066406 70.363281 -5.457031 69.03125 -5.125 C 67.707031 -4.800781 66.332031 -4.523438 64.90625 -4.296875 L 62.75 -4.296875 C 62.082031 -4.296875 61.304688 -4.242188 60.421875 -4.140625 L 24.34375 -4.140625 L 24.34375 -98.671875 C 24.34375 -99.222656 24.394531 -99.773438 24.5 -100.328125 L 24.5 -102.3125 C 24.613281 -103.082031 24.671875 -103.742188 24.671875 -104.296875 L 24.671875 -105.453125 C 25.003906 -106.890625 25.28125 -107.609375 25.5 -107.609375 L 25.828125 -107.609375 L 25.828125 -109.265625 L 6.625 -109.265625 L 6.625 -107.609375 L 6.78125 -107.609375 C 7.5625 -107.609375 7.953125 -106.835938 7.953125 -105.296875 C 8.171875 -104.847656 8.28125 -104.296875 8.28125 -103.640625 L 8.28125 -102.984375 L 8.109375 -7.125 L 8.109375 -5.296875 C 8.109375 -4.859375 8 -4.363281 7.78125 -3.8125 C 7.78125 -2.375 7.445312 -1.65625 6.78125 -1.65625 L 6.625 -1.65625 Z M 6.625 0 "/></g></g></g><g fill="#f7f8fa" fill-opacity="1"><g transform="translate(212.459633, 459.374997)"><g><path d="M 9.109375 -73.34375 C 8.992188 -73.226562 8.9375 -73.0625 8.9375 -72.84375 L 8.9375 -5.296875 C 8.9375 -4.859375 8.828125 -4.363281 8.609375 -3.8125 C 8.609375 -2.375 8.273438 -1.65625 7.609375 -1.65625 L 7.453125 -1.65625 L 7.453125 0 L 25 0 L 25 -1.65625 L 24.828125 -1.65625 C 24.390625 -1.65625 24.003906 -2.425781 23.671875 -3.96875 L 23.671875 -5.125 C 23.566406 -5.675781 23.515625 -6.835938 23.515625 -8.609375 L 23.515625 -82.78125 L 20.53125 -82.78125 L 7.453125 -78.46875 L 7.453125 -77.484375 L 7.609375 -76.8125 C 8.160156 -75.9375 8.550781 -75.054688 8.78125 -74.171875 C 9 -73.953125 9.109375 -73.726562 9.109375 -73.5 Z M 5.625 -104.625 C 5.625 -100.875 6.34375 -98.117188 7.78125 -96.359375 C 9.4375 -95.035156 12.085938 -94.375 15.734375 -94.375 C 19.265625 -94.375 21.71875 -95.0625 23.09375 -96.4375 C 24.476562 -97.8125 25.171875 -100.378906 25.171875 -104.140625 C 25.171875 -108.003906 24.453125 -110.597656 23.015625 -111.921875 C 21.910156 -113.242188 19.367188 -113.90625 15.390625 -113.90625 C 11.859375 -113.90625 9.347656 -113.242188 7.859375 -111.921875 C 6.367188 -110.597656 5.625 -108.164062 5.625 -104.625 Z M 5.625 -104.625 "/></g></g></g><g fill="#f7f8fa" fill-opacity="1"><g transform="translate(235.417446, 459.374997)"><g><path d="M 60.09375 -1.65625 C 60.757812 -2.09375 61.476562 -2.425781 62.25 -2.65625 C 63.90625 -3.425781 65.503906 -4.28125 67.046875 -5.21875 C 68.597656 -6.15625 70.144531 -7.117188 71.6875 -8.109375 L 72.015625 -8.4375 C 72.679688 -8.882812 73.207031 -9.242188 73.59375 -9.515625 C 73.976562 -9.796875 74.390625 -10.101562 74.828125 -10.4375 L 73.5 -12.078125 C 72.289062 -11.085938 70.910156 -10.34375 69.359375 -9.84375 C 67.816406 -9.351562 66.21875 -8.96875 64.5625 -8.6875 C 62.90625 -8.414062 61.25 -8.25 59.59375 -8.1875 C 57.945312 -8.132812 56.40625 -8.109375 54.96875 -8.109375 C 51.757812 -8.109375 48.914062 -8.273438 46.4375 -8.609375 C 43.957031 -8.941406 41.613281 -9.382812 39.40625 -9.9375 C 35.65625 -11.363281 32.5625 -13.296875 30.125 -15.734375 C 28.695312 -17.710938 27.539062 -19.832031 26.65625 -22.09375 C 25.769531 -24.363281 25.132812 -26.710938 24.75 -29.140625 C 24.363281 -31.566406 24.113281 -34.046875 24 -36.578125 C 23.894531 -39.117188 23.84375 -41.550781 23.84375 -43.875 C 23.84375 -46.738281 23.925781 -49.601562 24.09375 -52.46875 C 24.257812 -55.34375 24.5625 -58.21875 25 -61.09375 C 25.769531 -64.625 26.734375 -67.570312 27.890625 -69.9375 C 29.054688 -72.3125 30.519531 -74.1875 32.28125 -75.5625 C 34.050781 -76.945312 36.175781 -77.941406 38.65625 -78.546875 C 41.144531 -79.160156 44.039062 -79.46875 47.34375 -79.46875 C 50.21875 -79.46875 52.484375 -79.242188 54.140625 -78.796875 C 55.796875 -78.359375 57.0625 -77.695312 57.9375 -76.8125 C 58.820312 -75.9375 59.515625 -74.722656 60.015625 -73.171875 C 60.515625 -71.628906 60.875 -69.863281 61.09375 -67.875 C 61.3125 -65.113281 61.863281 -63.039062 62.75 -61.65625 C 63.632812 -60.28125 65.566406 -59.59375 68.546875 -59.59375 C 71.304688 -59.59375 73.015625 -60.09375 73.671875 -61.09375 C 74.554688 -61.976562 75 -63.6875 75 -66.21875 C 74.445312 -72.175781 72.648438 -76.535156 69.609375 -79.296875 C 66.578125 -82.054688 62.082031 -83.4375 56.125 -83.4375 C 55.238281 -83.550781 54.300781 -83.609375 53.3125 -83.609375 L 50 -83.609375 C 41.28125 -83.609375 34.1875 -82.722656 28.71875 -80.953125 C 23.257812 -79.191406 19.007812 -76.488281 15.96875 -72.84375 C 12.9375 -69.195312 10.894531 -64.585938 9.84375 -59.015625 C 8.800781 -53.441406 8.28125 -46.847656 8.28125 -39.234375 C 8.28125 -32.285156 8.71875 -26.296875 9.59375 -21.265625 C 10.476562 -16.242188 12.078125 -12.101562 14.390625 -8.84375 C 16.710938 -5.59375 19.972656 -3.164062 24.171875 -1.5625 C 28.367188 0.03125 33.773438 0.828125 40.390625 0.828125 L 42.875 0.828125 C 43.539062 0.828125 44.148438 0.769531 44.703125 0.65625 L 47.015625 0.65625 C 49.222656 0.4375 51.398438 0.132812 53.546875 -0.25 C 55.703125 -0.632812 57.882812 -1.101562 60.09375 -1.65625 Z M 60.09375 -1.65625 "/></g></g></g><g fill="#f7f8fa" fill-opacity="1"><g transform="translate(309.199185, 459.374997)"><g><path d="M 9.109375 -73.34375 C 8.992188 -73.226562 8.9375 -73.0625 8.9375 -72.84375 L 8.9375 -5.296875 C 8.9375 -4.859375 8.828125 -4.363281 8.609375 -3.8125 C 8.609375 -2.375 8.273438 -1.65625 7.609375 -1.65625 L 7.453125 -1.65625 L 7.453125 0 L 25 0 L 25 -1.65625 L 24.828125 -1.65625 C 24.390625 -1.65625 24.003906 -2.425781 23.671875 -3.96875 L 23.671875 -5.125 C 23.566406 -5.675781 23.515625 -6.835938 23.515625 -8.609375 L 23.515625 -82.78125 L 20.53125 -82.78125 L 7.453125 -78.46875 L 7.453125 -77.484375 L 7.609375 -76.8125 C 8.160156 -75.9375 8.550781 -75.054688 8.78125 -74.171875 C 9 -73.953125 9.109375 -73.726562 9.109375 -73.5 Z M 5.625 -104.625 C 5.625 -100.875 6.34375 -98.117188 7.78125 -96.359375 C 9.4375 -95.035156 12.085938 -94.375 15.734375 -94.375 C 19.265625 -94.375 21.71875 -95.0625 23.09375 -96.4375 C 24.476562 -97.8125 25.171875 -100.378906 25.171875 -104.140625 C 25.171875 -108.003906 24.453125 -110.597656 23.015625 -111.921875 C 21.910156 -113.242188 19.367188 -113.90625 15.390625 -113.90625 C 11.859375 -113.90625 9.347656 -113.242188 7.859375 -111.921875 C 6.367188 -110.597656 5.625 -108.164062 5.625 -104.625 Z M 5.625 -104.625 "/></g></g></g><g fill="#f7f8fa" fill-opacity="1"><g transform="translate(332.156993, 459.374997)"><g><path d="M 17.046875 -3.3125 C 17.273438 -2.644531 17.5 -2.09375 17.71875 -1.65625 C 18.820312 -0.550781 20.363281 0.164062 22.34375 0.5 L 23.671875 0.5 C 24.003906 0.601562 24.554688 0.65625 25.328125 0.65625 L 25.65625 0.828125 L 31.453125 0.828125 C 33.328125 0.828125 35.007812 0.769531 36.5 0.65625 C 37.988281 0.550781 39.398438 0.390625 40.734375 0.171875 L 41.0625 0.171875 L 41.890625 -0.171875 L 42.390625 -0.171875 C 42.609375 -0.171875 42.71875 -0.222656 42.71875 -0.328125 L 43.203125 -0.328125 C 43.316406 -0.328125 43.429688 -0.382812 43.546875 -0.5 L 44.03125 -0.5 C 44.144531 -0.601562 44.3125 -0.65625 44.53125 -0.65625 C 44.75 -0.65625 44.914062 -0.710938 45.03125 -0.828125 L 45.359375 -0.828125 C 47.234375 -1.597656 48.832031 -2.484375 50.15625 -3.484375 C 50.382812 -3.585938 50.523438 -3.691406 50.578125 -3.796875 C 50.628906 -3.910156 50.765625 -4.023438 50.984375 -4.140625 C 51.097656 -4.242188 51.210938 -4.296875 51.328125 -4.296875 C 51.984375 -4.742188 52.476562 -5.132812 52.8125 -5.46875 C 53.03125 -5.6875 53.332031 -5.957031 53.71875 -6.28125 C 54.101562 -6.613281 54.519531 -6.945312 54.96875 -7.28125 L 53.8125 -8.4375 C 53.363281 -8.21875 53.03125 -8 52.8125 -7.78125 C 52.59375 -7.664062 52.316406 -7.445312 51.984375 -7.125 C 51.867188 -7.007812 51.59375 -6.84375 51.15625 -6.625 C 50.71875 -6.625 50.273438 -6.515625 49.828125 -6.296875 C 49.273438 -6.179688 48.664062 -6.09375 48 -6.03125 C 47.34375 -5.976562 46.570312 -5.898438 45.6875 -5.796875 L 44.375 -5.796875 C 43.820312 -5.796875 43.269531 -5.738281 42.71875 -5.625 L 38.734375 -5.625 C 38.078125 -5.625 37.640625 -5.679688 37.421875 -5.796875 L 33.78125 -5.796875 C 32.675781 -6.015625 31.898438 -6.34375 31.453125 -6.78125 C 31.117188 -7.226562 30.789062 -8.332031 30.46875 -10.09375 L 30.46875 -11.421875 C 30.46875 -11.753906 30.410156 -12.195312 30.296875 -12.75 L 30.296875 -77.15625 L 52.984375 -77.15625 L 52.984375 -82.78125 L 30.296875 -82.78125 L 30.296875 -105.953125 L 27.984375 -105.953125 L 27.3125 -104.625 C 26.757812 -103.300781 26.066406 -101.753906 25.234375 -99.984375 C 24.410156 -98.222656 23.53125 -96.429688 22.59375 -94.609375 C 21.65625 -92.796875 20.660156 -91.0625 19.609375 -89.40625 C 18.566406 -87.75 17.550781 -86.421875 16.5625 -85.421875 C 15.78125 -84.546875 14.894531 -83.71875 13.90625 -82.9375 C 12.914062 -82.164062 11.921875 -81.453125 10.921875 -80.796875 C 10.046875 -80.347656 9.023438 -79.957031 7.859375 -79.625 C 6.703125 -79.300781 5.460938 -78.972656 4.140625 -78.640625 L 4.140625 -77.15625 L 15.734375 -77.15625 L 15.734375 -16.890625 C 15.734375 -16.335938 15.785156 -15.785156 15.890625 -15.234375 L 15.890625 -12.25 C 16.003906 -11.363281 16.0625 -10.484375 16.0625 -9.609375 L 16.0625 -7.125 C 16.28125 -6.457031 16.390625 -5.957031 16.390625 -5.625 C 16.503906 -5.519531 16.5625 -5.300781 16.5625 -4.96875 C 16.664062 -4.851562 16.71875 -4.628906 16.71875 -4.296875 L 16.71875 -4.140625 C 16.832031 -4.023438 16.890625 -3.859375 16.890625 -3.640625 Z M 17.046875 -3.3125 "/></g></g></g><g fill="#f7f8fa" fill-opacity="1"><g transform="translate(380.940637, 459.374997)"><g><path d="M 25.328125 0.828125 C 30.078125 0.828125 34.378906 0.273438 38.234375 -0.828125 C 42.097656 -1.929688 45.800781 -4.082031 49.34375 -7.28125 C 49.664062 -3.96875 50.546875 -1.597656 51.984375 -0.171875 C 52.867188 0.378906 54.082031 0.820312 55.625 1.15625 C 57.164062 1.488281 59.207031 1.65625 61.75 1.65625 C 63.738281 1.65625 65.695312 1.546875 67.625 1.328125 C 69.5625 1.109375 71.46875 0.664062 73.34375 0 L 75.328125 -1 C 75.765625 -1.21875 76.316406 -1.65625 76.984375 -2.3125 L 79.796875 -5.125 C 80.015625 -5.238281 80.347656 -5.515625 80.796875 -5.953125 L 79.140625 -7.953125 C 77.921875 -6.734375 76.894531 -5.984375 76.0625 -5.703125 C 75.238281 -5.429688 74.222656 -5.296875 73.015625 -5.296875 C 70.585938 -5.296875 68.820312 -5.488281 67.71875 -5.875 C 66.613281 -6.257812 65.894531 -6.835938 65.5625 -7.609375 C 65.34375 -8.609375 65.148438 -9.769531 64.984375 -11.09375 C 64.816406 -12.414062 64.734375 -14.015625 64.734375 -15.890625 L 64.734375 -58.765625 C 64.734375 -61.085938 64.625 -63.515625 64.40625 -66.046875 C 64.1875 -68.585938 63.6875 -70.960938 62.90625 -73.171875 C 62.132812 -75.378906 60.976562 -77.335938 59.4375 -79.046875 C 57.894531 -80.765625 55.796875 -81.898438 53.140625 -82.453125 C 50.710938 -83.222656 47.128906 -83.609375 42.390625 -83.609375 L 38.734375 -83.609375 C 37.628906 -83.609375 36.472656 -83.550781 35.265625 -83.4375 C 34.492188 -83.4375 33.773438 -83.410156 33.109375 -83.359375 C 32.453125 -83.304688 31.789062 -83.222656 31.125 -83.109375 C 30.789062 -83.109375 30.515625 -83.050781 30.296875 -82.9375 L 29.46875 -82.9375 C 25.269531 -82.382812 21.1875 -80.894531 17.21875 -78.46875 C 13.25 -76.039062 10.488281 -72.734375 8.9375 -68.546875 L 23.671875 -68.546875 C 25.328125 -72.078125 27.203125 -74.804688 29.296875 -76.734375 C 31.398438 -78.671875 34.492188 -79.640625 38.578125 -79.640625 C 42.878906 -79.640625 45.691406 -78.421875 47.015625 -75.984375 C 48.453125 -73.890625 49.171875 -69.253906 49.171875 -62.078125 L 49.171875 -42.71875 L 34.9375 -40.5625 C 31.070312 -40.007812 27.398438 -39.316406 23.921875 -38.484375 C 20.441406 -37.660156 17.378906 -36.394531 14.734375 -34.6875 C 12.085938 -32.976562 9.960938 -30.628906 8.359375 -27.640625 C 6.753906 -24.660156 5.953125 -20.800781 5.953125 -16.0625 C 5.953125 -13.851562 6.203125 -11.585938 6.703125 -9.265625 C 7.203125 -6.953125 8.332031 -4.859375 10.09375 -2.984375 C 11.96875 -1.660156 13.957031 -0.664062 16.0625 0 C 16.394531 0 16.613281 0.0546875 16.71875 0.171875 L 18.046875 0.328125 L 18.703125 0.328125 C 19.035156 0.328125 19.257812 0.382812 19.375 0.5 L 20.03125 0.5 C 21.019531 0.71875 21.957031 0.828125 22.84375 0.828125 Z M 20.53125 -21.03125 C 20.53125 -23.675781 20.832031 -25.828125 21.4375 -27.484375 C 22.039062 -29.140625 22.953125 -30.519531 24.171875 -31.625 C 25.390625 -32.726562 26.90625 -33.609375 28.71875 -34.265625 C 30.539062 -34.929688 32.613281 -35.484375 34.9375 -35.921875 L 49.171875 -38.90625 L 49.171875 -11.59375 C 47.734375 -10.820312 45.414062 -10.101562 42.21875 -9.4375 C 40.894531 -9.21875 39.515625 -9.078125 38.078125 -9.015625 C 36.640625 -8.960938 35.316406 -8.9375 34.109375 -8.9375 C 31.234375 -8.9375 28.910156 -9.15625 27.140625 -9.59375 C 25.378906 -10.039062 24.003906 -10.707031 23.015625 -11.59375 C 21.359375 -13.570312 20.53125 -16.71875 20.53125 -21.03125 Z M 20.53125 -21.03125 "/></g></g></g><g fill="#9f3c48" fill-opacity="1"><g transform="translate(454.398865, 459.374997)"><g><path d="M 10.097656 -107.613281 L 10.097656 -109.265625 L 22.515625 -109.265625 L 22.515625 -107.613281 L 22.351562 -107.613281 C 22.351562 -107.445312 22.515625 -107.28125 22.679688 -107.113281 C 22.679688 -106.785156 22.847656 -106.617188 22.847656 -106.453125 C 22.847656 -106.121094 23.011719 -105.789062 23.34375 -105.460938 C 24.003906 -104.796875 24.667969 -103.804688 25.496094 -102.3125 C 26.488281 -100.988281 27.648438 -99.167969 28.972656 -96.851562 L 53.308594 -60.925781 L 80.296875 -100.988281 C 80.625 -101.484375 81.121094 -102.3125 81.949219 -103.472656 C 82.613281 -104.632812 83.109375 -105.460938 83.441406 -106.121094 C 84.101562 -107.113281 84.269531 -107.613281 83.9375 -107.613281 L 83.773438 -107.613281 L 83.773438 -109.265625 L 89.730469 -109.265625 L 89.730469 -107.613281 L 89.566406 -107.613281 C 89.234375 -107.613281 88.902344 -107.28125 88.242188 -106.617188 C 87.578125 -105.957031 86.75 -104.964844 85.425781 -103.308594 L 54.800781 -58.773438 L 88.574219 -8.941406 C 89.070312 -8.277344 89.566406 -7.617188 89.898438 -7.117188 C 90.226562 -6.621094 90.726562 -6.125 91.054688 -5.628906 C 91.386719 -4.964844 91.554688 -4.636719 91.882812 -4.304688 C 92.214844 -3.972656 92.378906 -3.640625 92.710938 -3.3125 C 93.042969 -2.980469 93.539062 -2.484375 94.035156 -2.152344 C 94.035156 -1.820312 94.203125 -1.65625 94.367188 -1.65625 L 94.53125 -1.65625 L 94.53125 -0.828125 C 94.53125 -0.828125 94.699219 -0.496094 94.699219 -0.164062 L 94.699219 0 L 82.28125 0 L 82.28125 -1.65625 C 82.613281 -1.65625 82.28125 -2.316406 81.289062 -3.808594 C 80.296875 -5.628906 78.472656 -8.445312 75.660156 -12.417969 L 49.5 -51.15625 L 26.65625 -14.898438 C 25.828125 -13.574219 25.164062 -12.417969 24.503906 -11.421875 C 23.839844 -10.429688 23.34375 -9.4375 22.847656 -8.609375 C 22.183594 -7.617188 21.6875 -6.953125 21.355469 -6.292969 C 21.027344 -5.628906 20.695312 -4.964844 20.363281 -4.46875 C 19.371094 -2.484375 18.875 -1.65625 19.203125 -1.65625 L 19.371094 -1.65625 L 19.371094 0 L 13.574219 0 L 13.574219 -1.65625 L 13.742188 -1.65625 C 14.074219 -1.65625 14.898438 -2.316406 15.894531 -3.640625 C 16.390625 -4.304688 17.050781 -5.132812 17.878906 -6.457031 C 18.707031 -7.78125 19.703125 -9.269531 21.027344 -11.257812 L 48.011719 -53.308594 L 16.058594 -100.492188 C 13.90625 -103.472656 12.582031 -105.292969 11.921875 -105.957031 C 11.257812 -106.949219 10.59375 -107.613281 10.265625 -107.613281 Z M 10.097656 -107.613281 "/></g></g></g></svg>